<?xml version="1.0" encoding="UTF-8" standalone="no"?>
<!-- Created with Inkscape (http://www.inkscape.org/) -->

<svg
   xmlns:dc="http://purl.org/dc/elements/1.1/"
   xmlns:cc="http://creativecommons.org/ns#"
   xmlns:rdf="http://www.w3.org/1999/02/22-rdf-syntax-ns#"
   xmlns:svg="http://www.w3.org/2000/svg"
   xmlns="http://www.w3.org/2000/svg"
   xmlns:sodipodi="http://sodipodi.sourceforge.net/DTD/sodipodi-0.dtd"
   xmlns:inkscape="http://www.inkscape.org/namespaces/inkscape"
   width="94.366386mm"
   height="172.30356mm"
   viewBox="0 0 94.366386 172.30356"
   version="1.1"
   id="svg8"
   inkscape:version="0.92.2 (5c3e80d, 2017-08-06)"
   sodipodi:docname="Buttons.svg">
  <defs
     id="defs2" />
  <sodipodi:namedview
     id="base"
     pagecolor="#ffffff"
     bordercolor="#666666"
     borderopacity="1.0"
     inkscape:pageopacity="0.0"
     inkscape:pageshadow="2"
     inkscape:zoom="0.98994949"
     inkscape:cx="82.097498"
     inkscape:cy="364.09964"
     inkscape:document-units="mm"
     inkscape:current-layer="layer1"
     showgrid="false"
     fit-margin-left="10"
     fit-margin-top="10"
     fit-margin-bottom="10"
     fit-margin-right="10"
     inkscape:window-width="1920"
     inkscape:window-height="1001"
     inkscape:window-x="-9"
     inkscape:window-y="-9"
     inkscape:window-maximized="1" />
  <metadata
     id="metadata5">
    <rdf:RDF>
      <cc:Work
         rdf:about="">
        <dc:format>image/svg+xml</dc:format>
        <dc:type
           rdf:resource="http://purl.org/dc/dcmitype/StillImage" />
        <dc:title></dc:title>
      </cc:Work>
    </rdf:RDF>
  </metadata>
  <g
     inkscape:label="Ebene 1"
     inkscape:groupmode="layer"
     id="layer1"
     transform="translate(-49.568387,-31.190343)">
    <rect
       style="opacity:1;fill:#ffffff;fill-opacity:1;stroke:#000000;stroke-width:0.55298418;stroke-linecap:round;stroke-miterlimit:4;stroke-dasharray:none;stroke-opacity:1"
       id="rect4578"
       width="73.8134"
       height="42.199623"
       x="59.844879"
       y="41.466835" />
    <g
       id="g4554"
       transform="matrix(0.31205592,0,0,0.38638237,116.30346,11.921922)">
      <path
         inkscape:connector-curvature="0"
         id="path64"
         d="m -30.54681,90.687185 -0.19857,0.0018 -0.20221,0.0018 -0.20039,0.0055 -0.20222,0.0073 -0.2022,0.0091 -0.20222,0.01273 -0.20038,0.01273 -0.19858,0.0164 -0.19857,0.0182 -0.19492,0.02187 -0.19493,0.02187 -0.19128,0.0255 -0.18764,0.02734 -0.184,0.03097 -0.18217,0.03281 -0.17671,0.03644 -0.17124,0.03643 -0.1676,0.0419 -0.16214,0.04373 -0.15666,0.04554 -0.14939,0.04918 -0.14392,0.05283 -0.13844,0.05466 -0.12936,0.05829 -0.12205,0.06012 -0.11476,0.06376 -0.10567,0.06558 -0.051,0.03461 -0.0474,0.03461 -0.0455,0.03643 -0.0419,0.03826 -0.0419,0.03643 -0.0383,0.03826 -0.0364,0.03825 -0.0328,0.04008 -0.031,0.0419 -0.0291,0.04008 -0.0255,0.0419 -0.0237,0.04373 -0.02,0.04372 -0.0182,0.04554 -0.0146,0.04555 -0.0109,0.04736 -0.0328,0.07287 -0.0328,0.07287 -0.0364,0.07105 -0.0382,0.06923 -0.0401,0.06923 -0.0401,0.06558 -0.0419,0.06559 -0.0455,0.06375 -0.0455,0.06194 -0.0492,0.06011 -0.0492,0.0583 -0.051,0.05648 -0.0528,0.05648 -0.0546,0.05283 -0.0565,0.05283 -0.0583,0.05101 -0.0583,0.04918 -0.0619,0.04736 -0.0619,0.04555 -0.0638,0.04373 -0.0674,0.0419 -0.0656,0.0419 -0.0692,0.03825 -0.0692,0.03826 -0.0729,0.03461 -0.071,0.03281 -0.0747,0.03277 -0.0765,0.02914 -0.0765,0.02914 -0.0783,0.02551 -0.0802,0.02551 -0.082,0.02367 -0.082,0.02004 -0.0838,0.02004 -0.0856,0.0164 -0.0856,0.0164 -0.0875,0.01277 -0.0893,0.01273 -0.0893,0.0091 -0.0911,0.0073 -0.0929,0.0073 -0.0929,0.0036 -0.0947,0.0018 h -0.0947 l -0.0966,-0.0018 -0.0984,-0.0036 -0.0984,-0.0073 -0.10021,-0.0073 -0.10019,-0.0091 -0.10201,-0.01093 -0.10384,-0.01457 -0.10384,-0.0164 -0.10384,-0.0182 -0.10566,-0.02004 -0.10748,-0.02187 -0.10566,-0.02551 -0.21861,-0.05465 -0.22044,-0.06376 -0.22407,-0.07105 -0.2259,-0.08198 -0.26597,-0.156672 -0.26597,-0.147568 -0.2678,-0.143908 -0.27144,-0.134807 -0.27326,-0.13117 -0.275081,-0.123878 -0.280546,-0.120237 -0.284194,-0.112945 -0.286012,-0.107488 -0.291478,-0.100193 -0.296945,-0.09655 -0.30058,-0.08927 -0.306056,-0.08744 -0.311513,-0.07833 -0.316989,-0.07651 -0.322445,-0.06923 -0.329729,-0.06558 -0.337027,-0.06012 -0.342487,-0.05647 -0.351591,-0.05101 -0.357069,-0.04736 -0.364342,-0.04373 -0.373456,-0.03825 -0.382567,-0.03281 -0.389855,-0.03097 -0.398955,-0.02734 -0.408069,-0.02187 -0.417182,-0.02004 -0.428107,-0.01457 -0.437213,-0.01273 -0.448151,-0.0091 -0.459081,-0.0036 -0.384387,0.0182 -0.191273,0.01277 -0.193114,0.01273 -0.189457,0.0164 -0.191284,0.0182 -0.189454,0.02004 -0.187651,0.02367 -0.185806,0.02367 -0.18582,0.02734 -0.182181,0.02731 -0.182171,0.03097 -0.178522,0.03461 -0.176718,0.03643 -0.173059,0.03825 -0.171249,0.04008 -0.169418,0.04373 -0.163957,0.04554 -0.162136,0.04918 -0.156668,0.05101 -0.154845,0.05283 -0.149384,0.0583 -0.14574,0.06011 -0.142092,0.06194 -0.136639,0.06558 -0.131159,0.06923 -0.127521,0.07105 -0.122058,0.07469 -0.116594,0.07833 -0.109304,0.08016 -0.105659,0.08562 -0.09838,0.08745 0.0055,0.051 0.0073,0.05284 0.01278,0.05283 0.01638,0.05465 0.01823,0.05465 0.02003,0.05466 0.02551,0.05646 0.0255,0.05466 0.03098,0.05648 0.03097,0.05646 0.03644,0.05466 0.03643,0.05465 0.04008,0.05465 0.04008,0.05466 0.04372,0.05283 0.04554,0.05283 0.04737,0.05101 0.04918,0.051 0.05101,0.05101 0.05283,0.04736 0.05283,0.04736 0.05466,0.04736 0.05647,0.04373 0.05648,0.0419 0.05829,0.0419 0.0583,0.03826 0.06012,0.03825 0.06012,0.03461 0.06193,0.03097 0.06012,0.03097 0.06193,0.02734 0.06194,0.02367 0.105659,0.0073 h 0.04919 l 0.051,-0.0018 0.04919,-0.0036 0.04736,-0.0055 0.04737,-0.0073 0.04555,-0.0091 0.04372,-0.01093 0.04373,-0.01273 0.04371,-0.01457 0.0419,-0.0164 0.04008,-0.0182 0.04008,-0.02004 0.03826,-0.02367 0.03644,-0.02367 0.03826,-0.02551 0.03461,-0.02734 0.03461,-0.02914 0.03281,-0.03097 0.03281,-0.03461 0.03097,-0.03461 0.03097,-0.03643 0.02914,-0.04008 0.02914,-0.04008 0.02734,-0.0419 0.05101,-0.09109 0.04918,-0.09838 0.0419,-0.10383 0.118417,-0.05284 0.123878,-0.04918 0.129344,-0.04736 0.134805,-0.04373 0.136636,-0.04372 0.143912,-0.0419 0.147566,-0.04008 0.149376,-0.03643 0.154853,-0.03644 0.158488,-0.03277 0.160316,-0.03281 0.163957,-0.03097 0.337024,-0.05648 0.344308,-0.05283 0.351594,-0.04736 0.357055,-0.0419 0.358889,-0.03826 0.360704,-0.03644 0.358878,-0.03281 0.35524,-0.02914 0.695899,-0.05465 0.236831,0.0091 0.231362,0.01094 0.227719,0.01273 0.224065,0.01457 0.218615,0.0182 0.216784,0.0182 0.211323,0.02187 0.211317,0.02367 0.207682,0.0255 0.204033,0.02914 0.202216,0.03097 0.202208,0.03277 0.196749,0.03644 0.19857,0.03825 0.19675,0.04189 0.193103,0.04373 0.194929,0.04736 0.193104,0.05101 0.194924,0.05283 0.191283,0.05465 0.194921,0.06012 0.193103,0.06194 0.194932,0.06741 0.194924,0.0674 0.198567,0.07288 0.196752,0.07469 0.200396,0.08015 0.202205,0.08198 0.204036,0.08744 0.205862,0.08927 0.209492,0.09291 0.211328,0.09836 -0.26233,-0.02367 -0.256865,-0.02004 -0.249579,-0.02004 -0.244115,-0.01457 -0.236831,-0.01277 -0.233183,-0.01093 -0.225888,-0.0073 -0.22225,-0.0055 -0.216794,-0.0036 h -0.211317 -0.207685 l -0.204034,0.0036 -0.200387,0.0055 -0.194921,0.0073 -0.380749,0.0182 -0.369811,0.02367 -0.358886,0.03097 -0.351594,0.03461 -0.344308,0.04008 -0.338838,0.04191 -0.338844,0.04554 -0.675865,0.09474 -0.289658,0.08562 -0.286012,0.08562 -0.282366,0.08744 -0.278728,0.08926 -0.275082,0.08744 -0.269624,0.09109 -0.265967,0.09109 -0.260511,0.09108 -0.256865,0.09291 -0.253217,0.09291 -0.249579,0.09473 -0.244115,0.09474 -0.240469,0.09473 -0.236829,0.09838 -0.233183,0.09654 -0.227716,0.09838 -0.56474,0.240468 -0.559273,0.229545 -0.55199,0.220423 -0.546513,0.211328 -0.541059,0.204036 -0.533774,0.191283 -0.528296,0.183991 -0.521025,0.173066 -0.515546,0.163957 -0.508265,0.154842 -0.504624,0.14575 -0.495514,0.136624 -0.245933,0.06558 -0.24593,0.06194 -0.242295,0.05829 -0.240469,0.0583 -0.240467,0.05465 -0.238646,0.05283 -0.236831,0.05101 -0.235003,0.04736 -0.355237,0.07287 -0.353423,0.06558 -0.351591,0.06376 -0.351595,0.05647 -0.349771,0.05466 -0.347956,0.04919 -0.346128,0.04554 -0.344313,0.0419 -0.344307,0.03644 -0.342482,0.03277 -0.34067,0.02914 -0.338844,0.02551 -0.337021,0.02004 -0.335195,0.0182 -0.333375,0.01457 -0.33156,0.01093 -0.331557,0.0055 -0.327912,0.0036 h -0.326088 l -0.324274,-0.0018 -0.322447,-0.0073 -0.320625,-0.0091 -0.318804,-0.01457 -0.316982,-0.01457 -0.313341,-0.0182 -0.313343,-0.02187 -0.309692,-0.02551 -0.307877,-0.02734 -0.304229,-0.02914 -0.304228,-0.03281 -0.300591,-0.03643 -0.298759,-0.03643 -0.295127,-0.04008 -0.295116,-0.04372 -0.289661,-0.04555 -0.289658,-0.04736 -0.286012,-0.04919 -0.282366,-0.05101 -0.282374,-0.05283 -0.276899,-0.05465 -0.276908,-0.0583 -0.271436,-0.06011 -0.271441,-0.06012 -0.26597,-0.06193 -0.264155,-0.06559 -0.262334,-0.06558 -0.258681,-0.0674 -0.255047,-0.06741 -0.253217,-0.07105 -0.249579,-0.07105 -0.245933,-0.07287 -0.242295,-0.07469 -0.240466,-0.07468 -0.236831,-0.07469 -0.235001,-0.07651 -0.229536,-0.07834 -0.451797,-0.158489 -0.437214,-0.16032 -0.424466,-0.160306 -0.409889,-0.163957 -0.200388,-0.04736 -0.200395,-0.04554 -0.20039,-0.0419 -0.200388,-0.04008 -0.196752,-0.03643 -0.198567,-0.03644 -0.196747,-0.03097 -0.196752,-0.03097 -0.194924,-0.02734 -0.193101,-0.02551 -0.193103,-0.02187 -0.193114,-0.02187 -0.191273,-0.0182 -0.191286,-0.0164 -0.189463,-0.01457 -0.187639,-0.01273 -0.187638,-0.01093 -0.185817,-0.0073 -0.185816,-0.0073 -0.183992,-0.0055 -0.366172,-0.0036 -0.360707,0.0036 -0.35524,0.01273 -0.349771,0.0164 -0.346128,0.02187 -0.34067,0.02914 -0.112942,0.03826 -0.111125,0.03643 -0.107487,0.04008 -0.103844,0.0419 -0.100193,0.0419 -0.09838,0.04373 -0.09473,0.04554 -0.09108,0.04555 -0.08745,0.04919 -0.08562,0.051 -0.08198,0.05101 -0.07834,0.05283 -0.07468,0.05466 -0.07287,0.05647 -0.06923,0.05648 -0.06558,0.06012 -0.06194,0.06012 -0.06011,0.06376 -0.05648,0.06193 -0.05283,0.06741 -0.04918,0.06558 -0.04737,0.06923 -0.04372,0.06922 -0.04008,0.07105 -0.03643,0.07287 -0.03461,0.07469 -0.02914,0.07651 -0.02734,0.07834 -0.02551,0.07833 -0.02003,0.08016 -0.0182,0.08198 -0.01458,0.08562 0.0091,0.134807 0.0055,0.13299 0.0055,0.129343 0.0019,0.125695 v 0.122053 0.120241 l -0.0036,0.114773 -0.0073,0.111125 -0.0091,0.107477 -0.01093,0.102024 -0.01273,0.09837 -0.01458,0.09473 -0.0182,0.08926 -0.02003,0.08563 -0.02188,0.08016 -0.02551,0.07651 -0.02551,0.06922 -0.03097,0.06376 -0.03097,0.06012 -0.03461,0.0547 -0.03825,0.0474 -0.03826,0.0419 -0.0419,0.0383 -0.04554,0.0291 -0.04737,0.0255 -0.05101,0.0182 -0.05283,0.0109 -0.05465,0.004 h -0.05843 l -0.06012,-0.009 -0.06376,-0.0164 -0.0674,-0.0219 -2.694353,-0.347989 -0.517377,-0.02914 -0.513725,-0.02187 -0.506444,-0.0164 -0.502799,-0.01093 -0.49916,-0.0036 -0.493691,0.0036 -0.48822,0.0091 -0.482762,0.0164 -0.479115,0.02187 -0.47366,0.02914 -0.470003,0.03643 -0.464545,0.04008 -0.459081,0.04918 -0.453604,0.0547 -0.44998,0.0601 -0.44632,0.0692 -0.439042,0.0729 -0.435394,0.082 -0.43175,0.0856 -0.42446,0.0947 -0.42082,0.10021 -0.41719,0.10566 -0.20585,0.0565 -0.20404,0.0565 -0.20403,0.0601 -0.20221,0.0601 -0.20222,0.0619 -0.20039,0.0619 -0.19856,0.0674 -0.19858,0.0674 -0.19493,0.0674 -0.19674,0.0692 -0.1931,0.0729 -0.19311,0.0729 -0.19128,0.0747 -0.19128,0.0765 -0.18947,0.0783 -0.18763,0.0802 -0.18764,0.082 -0.18582,0.082 -0.18399,0.0856 -0.18218,0.0856 -0.27143,0.13298 -0.2678,0.13481 -0.26233,0.13481 -0.25687,0.13845 -0.25322,0.13846 -0.24775,0.14209 -0.24412,0.14392 -0.24046,0.14756 -0.23319,0.14937 -0.23136,0.14938 -0.2259,0.15484 -0.22043,0.15485 -0.21679,0.15849 -0.21313,0.16214 -0.20769,0.16213 -0.20403,0.16759 -0.19857,0.16944 -0.19492,0.17125 -0.19129,0.17489 -0.18581,0.17852 -0.18217,0.18035 -0.17854,0.184 -0.17307,0.18582 -0.16942,0.18946 -0.16395,0.1931 -0.16031,0.19675 -0.15667,0.20039 -0.15303,0.20221 -0.14756,0.20768 -0.14393,0.2095 -0.14027,0.21314 -0.13662,0.21862 -0.13117,0.22042 -0.12752,0.22408 -0.12388,0.22953 -0.11841,0.23318 -0.11659,0.23502 -0.11113,0.24046 -0.10748,0.24594 -0.10383,0.24593 -0.1002,0.25504 -0.0947,0.25505 -0.0911,0.26233 -0.0893,0.26415 -0.0838,0.26961 -0.0802,0.27327 -0.0765,0.27873 -0.071,0.28418 -0.0692,0.28784 -0.0656,0.29149 -0.0601,0.29694 -0.0583,0.30241 -0.0528,0.30787 -0.0492,0.3097 -0.0474,0.31698 -0.0419,0.32244 -0.0383,0.32609 -0.0364,0.33155 -0.031,0.33703 -0.0273,0.34248 -0.0255,0.34796 -0.02,0.35159 -0.0182,0.35888 -0.0127,0.36253 2.72349,0.66312 0.0619,0.24411 0.0692,0.2423 0.0747,0.24228 0.0802,0.23865 0.0874,0.23865 0.0911,0.23683 0.0984,0.23683 0.10384,0.23318 0.10931,0.235 0.11476,0.22954 0.12206,0.22954 0.1257,0.22772 0.13299,0.22589 0.13662,0.22408 0.14392,0.22225 0.14939,0.22043 0.15302,0.21678 0.16032,0.21679 0.16577,0.21315 0.16942,0.21132 0.17671,0.2095 0.18035,0.20585 0.18582,0.20403 0.19129,0.20404 0.19675,0.19857 0.2022,0.19675 0.20768,0.1931 0.21132,0.19129 0.21861,0.18763 0.22225,0.18764 0.2259,0.18218 0.23319,0.17852 0.15302,0.1166 0.15667,0.11477 0.15667,0.11113 0.15849,0.11112 0.16214,0.10931 0.16213,0.10747 0.16396,0.10566 0.16395,0.10385 0.1676,0.10202 0.1676,0.10019 0.17125,0.1002 0.17124,0.0966 0.17307,0.0965 0.17305,0.0947 0.17672,0.0929 0.1767,0.0893 0.17854,0.0893 0.17852,0.0874 0.18218,0.0856 0.18218,0.0838 0.18217,0.082 0.18582,0.0802 0.18582,0.0802 0.18763,0.0765 0.18764,0.0747 0.18947,0.0729 0.19127,0.0729 0.19128,0.0692 0.19311,0.0692 0.19311,0.0656 0.19492,0.0637 0.19675,0.0638 0.19674,0.0601 0.19675,0.0583 0.19857,0.0583 0.2004,0.0547 0.20038,0.0546 0.20222,0.051 0.202205,0.0492 0.202216,0.0492 0.204036,0.0456 0.205854,0.0437 0.205864,0.0419 0.205851,0.0401 0.207685,0.0401 0.207669,0.0346 0.207684,0.0346 0.2095,0.0346 0.209502,0.0291 0.211318,0.0291 0.2095,0.0273 0.213148,0.0255 0.211317,0.0237 0.213138,0.02 0.213148,0.0182 0.213138,0.0182 0.213148,0.0146 0.214966,0.0128 0.214969,0.0109 0.214963,0.0109 0.216787,0.005 0.214966,0.006 0.216784,0.004 0.216786,0.002 0.216786,-0.002 0.214964,-0.004 0.216786,-0.006 0.214966,-0.005 0.216784,-0.0109 0.213148,-0.0109 0.214966,-0.0128 0.214966,-0.0146 0.213138,-0.0182 0.213148,-0.0182 0.213138,-0.02 0.211328,-0.0237 0.21132,-0.0255 0.211317,-0.0273 0.209505,-0.0291 0.211318,-0.0291 0.207682,-0.0346 0.209502,-0.0346 0.207669,-0.0346 0.207685,-0.0401 0.205851,-0.0401 0.205864,-0.0419 0.204034,-0.0437 0.204036,-0.0456 0.204031,-0.0492 0.20221,-0.0492 0.200395,-0.051 0.202216,-0.0546 0.198567,-0.0547 0.198573,-0.0583 0.198567,-0.0583 0.196741,-0.0601 0.19675,-0.0638 0.194932,-0.0637 0.193101,-0.0656 0.193103,-0.0692 0.191286,-0.0692 0.191272,-0.0729 0.189469,-0.0729 0.187637,-0.0747 0.187637,-0.0765 0.185817,-0.0802 0.183999,-0.0802 0.183991,-0.082 0.182182,-0.0838 0.18035,-0.0856 0.180354,-0.0874 0.178525,-0.0893 0.176704,-0.0893 0.174887,-0.0929 0.17489,-0.0947 0.173066,-0.0965 0.171249,-0.0966 0.169421,-0.1002 0.169421,-0.10019 0.165774,-0.10202 0.165775,-0.10385 0.163962,-0.10566 0.162132,-0.10747 0.160316,-0.10931 0.158488,-0.11112 0.158488,-0.11113 0.154853,-0.11477 0.154844,-0.1166 0.154853,-0.11841 0.153019,-0.12023 0.149389,-0.12206 0.149387,-0.12388 0.14573,-0.12752 0.143917,-0.12752 0.142102,-0.12934 0.140272,-0.13299 0.138448,-0.13481 0.136634,-0.13663 0.134808,-0.1421 0.13299,-0.14391 0.131159,-0.14574 0.127521,-0.14938 0.127524,-0.15485 0.125704,-0.15667 0.123875,-0.16031 0.120229,-0.16396 0.120238,-0.1676 0.118411,-0.17306 0.116592,-0.17671 0.114773,-0.18218 0.114774,-0.184 0.111125,-0.1931 0.111125,-0.19492 0.107476,-0.20039 0.107487,-0.20404 0.105662,-0.21132 0.105661,-0.21679 0.102018,-0.22225 0.102013,-0.22771 0.100197,-0.23501 -6.611088,0.72687 -0.360704,0.29513 -0.33156,0.27143 -0.160308,0.12752 -0.156668,0.12389 -0.156673,0.12206 -0.158488,0.11841 -0.216786,0.15667 -0.22225,0.1512 -0.227719,0.14938 -0.231362,0.14392 -0.234998,0.13845 -0.24048,0.13299 -0.242284,0.13116 -0.247764,0.12388 -0.251396,0.12023 -0.255048,0.1166 -0.25868,0.11112 -0.262332,0.10566 -0.26415,0.10202 -0.267795,0.0965 -0.271444,0.0911 -0.273262,0.0874 -0.276899,0.082 -0.280546,0.0765 -0.280546,0.0729 -0.284194,0.0656 -0.287843,0.0619 -0.287832,0.0565 -0.291476,0.051 -0.291478,0.0474 -0.295124,0.0401 -0.295116,0.0346 -0.296942,0.031 -0.298765,0.0237 -0.30059,0.02 -0.300594,0.0146 -0.302397,0.007 -0.304239,0.004 -0.3024,-0.004 -0.302409,-0.007 -0.30059,-0.0146 -0.300583,-0.02 -0.29877,-0.0237 -0.296947,-0.031 -0.296945,-0.0346 -0.293295,-0.0401 -0.293296,-0.0474 -0.289658,-0.051 -0.289658,-0.0565 -0.286015,-0.0619 -0.284183,-0.0656 -0.282374,-0.0729 -0.278728,-0.0765 -0.276903,-0.082 -0.275076,-0.0874 -0.269627,-0.0911 -0.267784,-0.0965 -0.26598,-0.10202 -0.26233,-0.10566 -0.25686,-0.11112 -0.25505,-0.1166 -0.2514,-0.12023 -0.24776,-0.12388 -0.2441,-0.13116 -0.23865,-0.13299 -0.23683,-0.13845 -0.23136,-0.14392 -0.22589,-0.14938 -0.22226,-0.1512 -0.21861,-0.15667 -0.21496,-0.16214 -0.2095,-0.16577 -0.20222,-0.17126 -0.19674,-0.17306 -0.18947,-0.17489 -0.18581,-0.17853 -0.17671,-0.18217 -0.17307,-0.18581 -0.16395,-0.18764 -0.16031,-0.19129 -0.15121,-0.1931 -0.14574,-0.19675 -0.14027,-0.19857 -0.13299,-0.20039 -0.1257,-0.20404 -0.11841,-0.20585 -0.11295,-0.20768 -0.10565,-0.20949 -0.0984,-0.21133 -0.0911,-0.21314 -0.0838,-0.21497 -0.0783,-0.21678 -0.071,-0.21862 -0.0619,-0.2186 -0.0565,-0.22225 -0.0492,-0.22226 -0.0401,-0.22407 -0.0182,-0.11113 -0.0164,-0.11294 -0.0146,-0.11295 -0.0127,-0.11295 -0.009,-0.11295 -0.009,-0.11295 -0.006,-0.11294 -0.005,-0.11295 -0.002,-0.11476 -0.002,-0.11478 0.002,-0.11294 0.002,-0.11478 0.005,-0.11294 0.006,-0.11296 0.009,-0.11477 0.009,-0.11112 0.0127,-0.11476 0.0146,-0.11296 0.0164,-0.11113 0.0182,-0.11294 0.0401,-0.22225 0.0492,-0.22408 0.0565,-0.22042 0.0619,-0.21861 0.071,-0.21862 0.0783,-0.21678 0.0838,-0.21497 0.0911,-0.21495 0.0984,-0.21133 0.10565,-0.20768 0.11295,-0.20768 0.11841,-0.20768 0.1257,-0.20221 0.13299,-0.20221 0.14027,-0.19675 0.14574,-0.19674 0.15121,-0.19493 0.16031,-0.18946 0.16395,-0.18764 0.17307,-0.18581 0.17671,-0.18219 0.18581,-0.17852 0.18947,-0.17672 0.19674,-0.17305 0.20222,-0.16942 0.2095,-0.16579 0.21496,-0.16213 0.21861,-0.15666 0.22226,-0.15304 0.22589,-0.14756 0.23136,-0.14391 0.23683,-0.13845 0.23865,-0.13482 0.2441,-0.12934 0.24776,-0.12569 0.2514,-0.12024 0.25505,-0.11477 0.25686,-0.11295 0.26233,-0.10566 0.26598,-0.10202 0.267784,-0.0947 0.269627,-0.0929 0.275076,-0.0874 0.276903,-0.082 0.278728,-0.0765 0.282374,-0.071 0.284183,-0.0674 0.286015,-0.0601 0.289658,-0.0583 0.289658,-0.051 0.293296,-0.0456 0.293295,-0.0401 0.296945,-0.0346 0.296947,-0.031 0.29877,-0.0255 0.300583,-0.0182 0.30059,-0.0146 0.302409,-0.009 0.3024,-0.002 0.347956,0.0219 0.338844,0.0237 0.327909,0.0273 0.320632,0.0273 0.307867,0.0291 0.30059,0.031 0.289661,0.0328 0.280545,0.0328 0.271434,0.0364 0.262329,0.0383 0.251402,0.0401 0.242297,0.0401 0.231362,0.0437 0.224071,0.0437 0.213145,0.0474 0.202208,0.0474 0.194932,0.0492 0.183991,0.0528 0.174885,0.0528 0.163954,0.0565 0.156673,0.0546 0.145738,0.0583 0.136636,0.0619 0.125693,0.0619 0.116594,0.0638 0.107487,0.0638 0.09837,0.0674 0.08745,0.0692 0.04007,0.0346 0.03826,0.0364 0.03643,0.0346 0.03281,0.0364 0.03097,0.0383 0.02734,0.0364 0.02734,0.0383 0.02188,0.0382 0.06012,0.0401 0.08198,0.0528 0.102012,0.0601 0.06012,0.031 0.06558,0.0328 0.06923,0.0328 0.07651,0.0328 0.08016,0.031 0.08561,0.031 0.08928,0.0291 0.09473,0.0255 0.100195,0.0255 0.103838,0.02 0.10931,0.0182 0.11476,0.0127 0.116594,0.0109 0.123876,0.004 h 0.125703 l 0.13117,-0.004 0.136625,-0.0127 0.138454,-0.0182 0.143912,-0.0255 0.147567,-0.0328 0.153024,-0.0401 0.154853,-0.0474 0.158488,-0.0583 0.163954,-0.0674 0.08198,-0.0346 0.0838,-0.0401 0.08562,-0.0419 0.08563,-0.0437 h -0.0073 l 0.207679,-0.0474 0.20039,-0.0437 0.194929,-0.0419 0.18764,-0.0346 0.182171,-0.0328 0.176713,-0.0291 0.169423,-0.0255 0.163957,-0.0219 0.156668,-0.0164 0.151204,-0.0164 0.143912,-0.009 0.138454,-0.006 0.13117,-0.004 h 0.125695 l 0.120238,0.005 0.112945,0.009 0.105661,0.0109 0.102018,0.0164 0.09291,0.02 0.08926,0.0219 0.08198,0.0273 0.07469,0.031 0.06923,0.0346 0.06376,0.0382 0.05646,0.0419 0.04919,0.0455 0.04555,0.0492 0.03643,0.0528 0.03277,0.0565 0.02551,0.0619 0.0182,0.0638 0.01273,0.0674 0.0182,0.0383 0.01278,0.0382 0.01093,0.0364 0.0073,0.0383 0.0055,0.0364 0.0019,0.0346 -0.0019,0.0364 -0.0055,0.0346 -0.0073,0.0328 -0.01093,0.0346 -0.01458,0.0328 -0.0164,0.0328 -0.02003,0.031 -0.02368,0.0328 -0.02734,0.031 -0.03097,0.031 -0.03281,0.0291 -0.03643,0.0291 -0.03826,0.0291 -0.0419,0.0291 -0.04555,0.0291 -0.04918,0.0273 -0.107487,0.0528 -0.120232,0.051 -0.131165,0.0492 -0.143912,0.0474 -0.158501,0.0456 -1.029274,0.17489 -0.998313,0.17489 -0.96734,0.17124 -0.936379,0.16942 -0.905399,0.1676 -0.874435,0.16578 -0.843468,0.16213 -0.810672,0.16031 -0.779706,0.1585 -0.748732,0.15848 -0.715946,0.15486 -0.684977,0.15302 -0.652174,0.14939 -0.621216,0.14937 -0.588422,0.14574 -0.555625,0.14574 -0.524664,0.1421 -0.490045,0.14028 -0.459081,0.13845 -0.216787,0.0674 -0.209499,0.0692 -0.200396,0.0674 -0.191275,0.0674 -0.183999,0.0656 -0.176708,0.0656 -0.1676,0.0638 -0.158488,0.0656 -0.151209,0.0638 -0.143918,0.0638 -0.13299,0.0638 -0.127524,0.0619 -0.116588,0.0619 -0.109297,0.0619 -0.102024,0.0619 -0.09291,0.0601 -0.0838,0.0601 -0.07469,0.0601 -0.0674,0.0583 -0.06012,0.0583 -0.04918,0.0583 -0.0419,0.0583 -0.03461,0.0565 -0.01273,0.0291 -0.01093,0.0273 -0.0091,0.0273 -0.0073,0.0291 -0.0055,0.0273 -0.0019,0.0273 -0.05465,0.18035 -0.04919,0.17853 -0.04372,0.17671 -0.03643,0.17307 -0.03097,0.17124 -0.02551,0.16942 -0.02003,0.16397 -0.01273,0.16577 -0.0073,0.16032 -0.0019,0.15849 0.0055,0.15667 0.0091,0.15484 0.0164,0.15121 0.02368,0.14755 0.02917,0.14757 0.03461,0.14391 0.04008,0.14027 0.04737,0.14029 0.05466,0.13481 0.05829,0.1348 0.0674,0.12935 0.07105,0.12933 0.07833,0.12571 0.08563,0.12206 0.09108,0.12022 0.09837,0.11842 0.103841,0.11477 0.109307,0.11295 0.118409,0.1093 0.122055,0.10567 0.131162,0.10566 0.136636,0.10019 0.142092,0.0984 0.151204,0.0947 0.15485,0.0947 0.163957,0.0893 0.169423,0.0874 0.176705,0.0856 0.182179,0.0802 0.191275,0.0802 0.196752,0.0747 0.202216,0.0747 0.211317,0.0692 0.216787,0.0674 0.224075,0.0638 0.231357,0.0619 0.236829,0.0583 0.245933,0.0547 0.251399,0.051 0.258694,0.051 0.265964,0.0456 0.273262,0.0437 0.280548,0.0401 0.286015,0.0383 0.295121,0.0328 0.300593,0.031 0.309692,0.0291 0.315161,0.0255 0.324263,0.02 0.329742,0.02 0.338839,0.0164 0.34431,0.0109 0.351595,0.009 0.360703,0.005 0.943663,-0.007 0.938194,-0.0164 0.932731,-0.0218 0.462729,-0.0146 0.459071,-0.0146 0.457258,-0.0182 0.453607,-0.02 0.449977,-0.02 0.44632,-0.0218 0.442685,-0.0255 0.437214,-0.0255 0.433583,-0.0291 0.426286,-0.031 0.422638,-0.031 0.417181,-0.0346 0.409888,-0.0364 0.4026,-0.0382 0.39714,-0.0401 0.389853,-0.0419 0.382569,-0.0437 0.375274,-0.0437 0.366173,-0.0492 0.358883,-0.0474 0.349777,-0.0528 0.340659,-0.0528 0.329729,-0.0565 0.322455,-0.0583 0.311513,-0.0583 0.302408,-0.0619 -0.0182,0.0729 -0.01458,0.0729 -0.01093,0.0729 -0.0073,0.071 -0.0036,0.0692 -0.0019,0.071 0.0036,0.0674 0.0055,0.0692 0.01093,0.0674 0.01273,0.0674 0.0164,0.0656 0.02003,0.0638 0.02368,0.0656 0.02551,0.0638 0.03097,0.0619 0.03281,0.0619 0.03825,0.0601 0.04008,0.0583 0.04372,0.0583 0.04554,0.0583 0.05101,0.0565 0.05283,0.0546 0.0583,0.0546 0.06012,0.0547 0.06375,0.051 0.06559,0.051 0.07105,0.051 0.07287,0.0474 0.07652,0.0474 0.07833,0.0456 0.0838,0.0455 0.08562,0.0437 0.08926,0.0419 0.09291,0.0401 0.09656,0.0401 0.09837,0.0383 0.102013,0.0364 0.105656,0.0346 0.10749,0.0346 0.111125,0.0328 0.114771,0.0292 0.118411,0.031 0.12023,0.0273 0.123886,0.0255 0.127521,0.0255 0.129341,0.0219 0.13299,0.02 0.136626,0.02 0.138454,0.0182 0.142092,0.0164 0.14574,0.0146 0.147558,0.0128 0.151204,0.0109 0.153033,0.009 0.156673,0.007 0.160305,0.005 0.163957,0.004 0.165783,0.002 h 0.167592 l 0.17307,-0.002 0.173069,-0.004 0.178522,-0.007 0.180353,-0.009 0.182179,-0.009 2.561363,-0.19493 2.29539,-0.18035 1.047493,-0.0856 0.981922,-0.082 0.916331,-0.0783 0.850752,-0.0747 0.783344,-0.071 0.717764,-0.0692 0.650365,-0.0638 0.586602,-0.0619 0.517366,-0.0583 0.453615,-0.0547 0.386207,-0.051 0.320628,-0.0474 0.145738,-0.0364 0.138456,-0.0364 0.129339,-0.0401 0.123883,-0.0419 0.118412,-0.0419 0.109307,-0.0456 0.103841,-0.0474 0.09836,-0.0492 0.09109,-0.051 0.08563,-0.051 0.08015,-0.0547 0.07288,-0.0565 0.06923,-0.0583 0.06193,-0.0619 0.05648,-0.0619 0.05283,-0.0674 0.04736,-0.0656 0.04191,-0.071 0.03643,-0.0729 0.03277,-0.0747 0.02734,-0.0765 0.02368,-0.082 0.02003,-0.082 0.01458,-0.0856 0.01273,-0.0856 0.0073,-0.0911 0.0036,-0.0947 v -0.0966 l -0.0019,-0.0984 -0.0073,-0.10202 -0.0073,-0.10566 -0.01273,-0.10748 -0.0182,-0.0947 -0.02188,-0.0911 -0.02368,-0.0893 -0.02914,-0.0874 -0.03097,-0.0838 -0.03643,-0.0856 -0.04191,-0.082 -0.04371,-0.0802 -0.05101,-0.0802 -0.05465,-0.0802 -0.06012,-0.0802 -0.06558,-0.0783 -0.07104,-0.0783 -0.07651,-0.0783 -0.0838,-0.0802 -0.08927,-0.082 -0.09654,-0.0802 -0.102023,-0.0838 -0.111125,-0.082 -0.116594,-0.0856 -0.125696,-0.0874 -0.132985,-0.0893 -0.140277,-0.0911 -0.149383,-0.0929 -0.156671,-0.0965 -0.165774,-0.10021 -0.358889,-0.20766 -0.395314,-0.22409 -0.435393,-0.23682 -0.541055,-0.23501 -0.526481,-0.22225 -0.513736,-0.21132 -0.504619,-0.20039 -0.495511,-0.19128 -0.491874,-0.18218 -0.244107,-0.0874 -0.245941,-0.0856 -0.244104,-0.0838 -0.245941,-0.0801 -0.245936,-0.0802 -0.24775,-0.0783 -0.247761,-0.0747 -0.251397,-0.0747 -0.253222,-0.0747 -0.255043,-0.071 -0.256865,-0.0692 -0.260511,-0.0692 -0.265978,-0.0674 -0.267787,-0.0674 -0.271442,-0.0656 -0.276907,-0.0638 -0.280549,-0.0638 -0.286014,-0.0638 -0.588418,-0.12206 -0.245933,-0.0273 -0.260506,-0.02 -0.275087,-0.0164 -0.291481,-0.0109 -0.306046,-0.005 h -0.322453 l -0.338841,0.005 -0.351595,0.0109 -0.369808,0.0164 -0.382566,0.0219 -0.398957,0.0273 -0.415364,0.0328 -0.429925,0.0364 -0.44633,0.0419 -0.460897,0.0492 -0.475477,0.0528 0.01093,0.0783 0.0036,0.0747 v 0.0712 l -0.0055,0.0692 -0.01278,0.0638 -0.0182,0.0619 -0.02368,0.0583 -0.02914,0.0565 -0.03461,0.0528 -0.04191,0.0492 -0.04736,0.0455 -0.05283,0.0437 -0.0583,0.0401 -0.06376,0.0383 -0.06923,0.031 -0.07651,0.031 -0.08198,0.0273 -0.08745,0.0237 -0.0929,0.0219 -0.09838,0.0182 -0.105658,0.0146 -0.111125,0.0109 -0.116592,0.009 -0.122057,0.004 -0.127522,0.004 -0.134807,-0.002 -0.138446,-0.004 -0.145738,-0.007 -0.151207,-0.0109 -0.156668,-0.0146 -0.163957,-0.0164 -0.167602,-0.02 -0.151205,0.0146 -0.143917,0.0109 -0.138449,0.009 -0.132987,0.005 -0.125704,0.004 h -0.122057 l -0.114774,-0.004 -0.107476,-0.005 -0.102013,-0.009 -0.09656,-0.0109 -0.09109,-0.0128 -0.08561,-0.0182 -0.07834,-0.02 -0.07286,-0.0219 -0.06741,-0.0255 -0.06011,-0.0291 -0.05466,-0.031 -0.04919,-0.0346 -0.04371,-0.0364 -0.03644,-0.0383 -0.03097,-0.0437 -0.02551,-0.0455 -0.0182,-0.0492 -0.01278,-0.051 -0.0073,-0.0528 -0.0019,-0.0565 0.0055,-0.0601 0.01093,-0.0619 0.0164,-0.0656 0.02368,-0.0692 0.02914,-0.071 0.03461,-0.0729 -0.537411,0.006 -0.504619,0.007 -0.907227,0.02 -0.774237,0.0219 -0.639424,0.0219 -0.504629,0.0164 -0.369805,0.0109 h -0.13299 -0.100193 l -0.06741,-0.005 -0.02003,-0.004 -0.01093,-0.006 -0.393502,-0.0729 -0.18035,-0.0383 -0.171244,-0.0346 -0.162131,-0.0383 -0.15121,-0.0364 -0.140271,-0.0364 -0.13117,-0.0364 -0.120229,-0.0364 -0.111125,-0.0364 -0.102021,-0.0364 -0.09108,-0.0364 -0.08016,-0.0364 -0.07105,-0.0364 -0.06012,-0.0364 -0.051,-0.0364 -0.04008,-0.0364 -0.0164,-0.0182 -0.01458,-0.0182 -0.01093,-0.0182 -0.0091,-0.0182 -0.0055,-0.0164 -0.0036,-0.02 -0.0019,-0.0164 0.0019,-0.0182 0.0036,-0.0182 0.0055,-0.0182 0.0091,-0.0182 0.01093,-0.0182 0.01458,-0.0182 0.0164,-0.0182 0.04008,-0.0364 0.04918,-0.0346 0.06011,-0.0364 0.07106,-0.0364 0.08015,-0.0364 0.08927,-0.0364 0.100198,-0.0346 0.111125,-0.0364 3.599746,-1.04204 0.577501,-0.20768 0.98556,-0.38439 0.958228,-0.37162 0.934551,-0.36071 0.910875,-0.34795 0.885357,-0.33338 0.859864,-0.32427 0.838002,-0.3097 0.810673,-0.29876 0.786992,-0.28419 0.763307,-0.27326 0.737801,-0.26051 0.714124,-0.24776 0.688615,-0.23682 0.663117,-0.22226 0.639424,-0.21132 0.615749,-0.19856 0.590243,-0.18582 0.566558,-0.17306 0.54106,-0.16214 0.515556,-0.14939 0.491863,-0.13662 0.468186,-0.12389 0.442682,-0.11112 0.418999,-0.1002 0.393502,-0.0856 0.36799,-0.0747 0.176705,-0.0328 0.167603,-0.031 0.163952,-0.0255 0.156673,-0.0237 0.151204,-0.02 0.143912,-0.0164 0.138454,-0.0146 0.132987,-0.009 0.125706,-0.009 0.12023,-0.004 0.112953,-0.004 0.107476,0.002 0.479116,-0.0237 0.477298,-0.02 0.479112,-0.0146 0.479116,-0.0109 0.480946,-0.007 0.479113,-0.004 0.482764,0.004 0.480933,0.005 0.480944,0.0109 0.482761,0.0146 0.482756,0.0182 0.48459,0.0237 0.482751,0.0291 0.484589,0.031 0.4864,0.0364 0.484582,0.0419 0.48641,0.0437 0.486399,0.051 0.488228,0.0528 0.486399,0.0583 0.48823,0.0619 0.488228,0.0674 0.490048,0.071 0.490046,0.0765 0.490048,0.0783 0.490048,0.0856 0.491863,0.0874 0.491873,0.0947 0.491869,0.0966 0.493694,0.10203 0.491865,0.10565 0.493694,0.10931 0.07286,0.0401 0.06559,0.0437 0.06376,0.0437 0.0583,0.0419 0.05465,0.0455 0.05101,0.0474 0.04554,0.0474 0.04008,0.0474 0.03826,0.0492 0.03277,0.051 0.02734,0.0528 0.02368,0.051 0.02003,0.0546 0.01458,0.0547 0.01273,0.0565 0.0055,0.0565 0.0019,0.0583 -0.0019,0.0583 -0.0073,0.0619 -0.01093,0.0601 -0.01458,0.0619 -0.02003,0.0638 -0.02368,0.0638 -0.02914,0.0674 -0.03277,0.0656 -0.03644,0.0674 -0.04189,0.0692 -0.04555,0.0692 -0.051,0.071 -0.05466,0.0729 -0.05829,0.0729 -0.06376,0.0729 -0.366173,0.29148 -0.35524,0.28419 -0.672219,0.54834 -0.635786,0.5192 -0.604816,0.49551 -0.293302,0.23501 -0.289657,0.23136 -0.286012,0.22408 -0.28601,0.2186 -0.284189,0.21315 -0.286019,0.20585 -0.286012,0.20039 -0.289648,0.19311 -3.100602,2.65609 0.661287,-2.46481 0.03644,-0.14028 0.03277,-0.13844 0.02914,-0.13664 0.02914,-0.13662 0.0255,-0.13846 0.02183,-0.13299 0.02003,-0.1348 0.0182,-0.13481 0.01458,-0.13299 0.01273,-0.13116 0.01093,-0.13117 0.0073,-0.12934 0.0036,-0.12934 0.0036,-0.12935 v -0.12752 l -0.0036,-0.12752 -0.0036,-0.1257 -0.0091,-0.1257 -0.0091,-0.12388 -0.01273,-0.12206 -0.0164,-0.12388 -0.01823,-0.12205 -0.02003,-0.12023 -0.02368,-0.12024 -0.02551,-0.12024 -0.02731,-0.11841 -0.03097,-0.11841 -0.03461,-0.11659 -0.03461,-0.11477 -0.04008,-0.11659 -0.04008,-0.11477 -0.04372,-0.11295 -0.0419,-0.0419 -0.0419,-0.0401 -0.04555,-0.0401 -0.04554,-0.0383 -0.04918,-0.0401 -0.05101,-0.0346 -0.107479,-0.0729 -0.114771,-0.0692 -0.123875,-0.0619 -0.129342,-0.0619 -0.140277,-0.0565 -0.145735,-0.0547 -0.154853,-0.051 -0.162136,-0.0474 -0.171241,-0.0437 -0.178533,-0.0419 -0.18582,-0.0383 -0.193103,-0.0346 -0.202205,-0.0328 -0.2095,-0.0273 -0.218615,-0.0273 -0.225896,-0.0237 -0.233182,-0.0219 -0.240469,-0.0182 -0.249579,-0.0164 -0.256866,-0.0146 -0.264149,-0.0109 -0.273262,-0.009 -0.280545,-0.007 -0.287833,-0.004 -0.295121,-0.004 h -0.304229 l -0.311525,0.002 -0.648536,0.009 -0.160317,-0.007 -0.15666,-0.004 h -0.153035 -0.149373 l -0.147571,0.004 -0.14391,0.004 -0.140274,0.007 -0.136633,0.0109 -0.13299,0.0109 -0.129339,0.0146 -0.125696,0.0146 -0.123886,0.02 -0.120229,0.02 -0.116589,0.0237 -0.112956,0.0237 -0.109299,0.0273 -0.105656,0.0291 -0.103844,0.0328 -0.09837,0.0328 -0.09656,0.0364 -0.09291,0.0364 -0.08926,0.0419 -0.08562,0.0419 -0.08198,0.0456 -0.08015,0.0474 -0.0747,0.0474 -0.07287,0.051 -0.06923,0.0546 -0.06558,0.0546 -0.06193,0.0583 -0.06012,0.0601 -0.05465,0.0619 -0.05283,0.0656 -0.04736,0.0674 -0.04555,0.0674 -0.04189,0.071 -0.04008,0.0729 -0.03461,0.0765 -0.03097,0.0765 -0.02918,0.082 -0.02551,0.0802 -0.02188,0.0856 -0.0182,0.0856 -0.01458,0.0893 -0.01093,0.0911 -0.0091,0.0929 -0.0036,0.0947 -0.0019,0.0984 0.0019,0.0984 0.0055,0.10201 0.0091,0.10566 0.01273,0.10566 0.01458,0.10749 0.0182,0.11113 0.02368,0.11294 0.02551,0.11477 0.02914,0.11841 0.03097,0.11842 0.03643,0.12206 0.04008,0.12387 0.0419,0.1257 0.04555,0.12935 0.04918,0.12934 0.05283,0.13299 0.153029,0.20767 0.153025,0.20404 0.151204,0.2004 0.149378,0.19492 0.295127,0.3771 0.291476,0.35887 0.286014,0.34067 0.280546,0.3261 0.275079,0.30786 0.269624,0.29148 0.262332,0.27873 0.256865,0.26233 0.249579,0.24958 0.240464,0.23318 0.235003,0.22225 0.227719,0.20769 0.218612,0.19491 0.211317,0.18218 0.202216,0.17306 0.193103,0.16032 0.18582,0.14938 0.174887,0.13845 0.320625,0.24958 0.280545,0.21132 0.236821,0.18036 0.102023,0.0802 0.09109,0.0729 0.07651,0.0656 0.0674,0.0601 0.05283,0.0565 0.0419,0.0492 0.08927,0.0747 0.08561,0.0765 0.08198,0.082 0.07834,0.0838 0.07469,0.0856 0.07105,0.0911 0.06558,0.0911 0.06194,0.0966 0.05647,0.0984 0.05284,0.10201 0.04918,0.10202 0.0419,0.10748 0.03826,0.10749 0.03277,0.11294 0.02734,0.11295 0.02188,0.11658 0.0164,0.11842 0.01093,0.12024 0.0036,0.12388 v 0.12387 l -0.0073,0.12753 -0.01458,0.12934 -0.02003,0.12934 -0.02734,0.13299 -0.03461,0.13299 -0.0419,0.13662 -0.04736,0.13846 -0.05648,0.13662 -0.06193,0.14028 -0.07105,0.14392 -0.07834,0.14209 -0.08562,0.14574 -0.183991,0.1421 -0.180351,0.13663 -0.180356,0.12752 -0.176704,0.12024 -0.174887,0.11294 -0.171249,0.10566 -0.169421,0.0965 -0.169423,0.0911 -0.163952,0.0838 -0.163957,0.0747 -0.162137,0.0674 -0.15849,0.0601 -0.15485,0.0528 -0.154842,0.0455 -0.153025,0.0364 -0.149384,0.0291 -0.271444,0.0638 -0.245932,0.0601 -0.22225,0.0601 -0.200388,0.0565 -0.176718,0.0565 -0.154842,0.0547 -0.13299,0.0528 -0.05829,0.0273 -0.05283,0.0237 -0.04736,0.0273 -0.04373,0.0237 -0.03825,0.0255 -0.03281,0.0255 -0.02734,0.0237 -0.02368,0.0255 -0.0182,0.0255 -0.01458,0.0237 -0.0073,0.0237 -0.0055,0.0219 v 0.0237 l 0.0036,0.0237 0.0073,0.0237 0.01458,0.0237 0.0164,0.0237 0.02003,0.0237 0.02551,0.0237 0.02918,0.0219 0.03277,0.0237 0.03643,0.0219 0.08563,0.0455 0.100192,0.0474 0.112953,0.0474 0.127516,0.0455 0.140282,0.0474 0.153025,0.0474 0.163952,0.0474 0.174889,0.0492 0.382566,0.10019 0.422641,0.10566 0.455432,0.10931 0.349774,0.0382 0.340672,0.0364 0.335196,0.031 0.327908,0.031 0.318807,0.0255 0.313341,0.0237 0.306049,0.02 0.29877,0.0164 0.291478,0.0127 0.284184,0.0109 0.27691,0.007 0.271434,0.004 0.262329,0.002 0.255045,-0.004 0.249579,-0.004 0.240469,-0.009 0.235008,-0.0109 0.225891,-0.0164 0.220429,-0.0182 0.211323,-0.02 0.205862,-0.0255 0.19857,-0.0273 0.191275,-0.0291 0.183999,-0.0364 0.176707,-0.0346 0.169421,-0.0419 0.162137,-0.0437 0.154852,-0.0455 0.149376,-0.0492 0.140282,-0.0547 0.13298,-0.0546 0.127521,-0.0583 0.163954,-0.0346 0.153035,-0.0364 0.07105,-0.0219 0.06923,-0.0219 0.0674,-0.0237 0.06376,-0.0237 0.06194,-0.0255 0.0583,-0.0255 0.05647,-0.0273 0.05283,-0.0291 0.04919,-0.0291 0.04918,-0.031 0.04372,-0.0328 0.0419,-0.0346 0.04008,-0.0328 0.03643,-0.0364 0.03461,-0.0364 0.03097,-0.0383 0.02914,-0.0382 0.02551,-0.0401 0.02188,-0.0419 0.02183,-0.0419 0.0164,-0.0437 0.01458,-0.0455 0.01273,-0.0455 0.01093,-0.0474 0.0055,-0.0474 0.0036,-0.0492 0.0019,-0.051 -0.0019,-0.051 0.142103,-0.0291 0.132979,-0.0328 0.125701,-0.031 0.116594,-0.0346 0.111125,-0.0328 0.103841,-0.0346 0.09655,-0.0346 0.08927,-0.0364 0.0838,-0.0383 0.07834,-0.0383 0.07105,-0.0382 0.06376,-0.0401 0.0583,-0.0401 0.05283,-0.0401 0.04736,-0.0419 0.04372,-0.0437 0.03644,-0.0437 0.03461,-0.0419 0.0273,-0.0437 0.02368,-0.0455 0.0182,-0.0455 0.01458,-0.0455 0.01093,-0.0474 0.0073,-0.0474 0.0036,-0.0474 v -0.0474 l -0.0036,-0.0474 -0.0055,-0.0492 -0.01093,-0.0492 -0.01093,-0.0492 -0.01458,-0.051 -0.0164,-0.0492 -0.03826,-0.10202 -0.04737,-0.10201 -0.051,-0.10203 -0.05648,-0.10384 -0.116591,-0.2095 -0.0583,-0.10383 -0.05647,-0.10566 -0.05283,-0.10384 -0.04918,-0.10384 -0.04008,-0.10384 -0.0182,-0.051 -0.0164,-0.051 -0.01273,-0.051 -0.01093,-0.051 -0.0091,-0.051 -0.0055,-0.0492 -0.0019,-0.051 v -0.0492 l 0.0055,-0.0492 0.0091,-0.0492 -1.300728,-4.87497 0.35524,-0.26416 0.35342,-0.2678 0.35342,-0.26961 0.349773,-0.27326 0.347946,-0.27508 0.347956,-0.2769 0.346128,-0.27873 0.342487,-0.28238 0.34067,-0.28418 0.338844,-0.28601 0.33701,-0.28966 0.335206,-0.29148 0.33156,-0.2933 0.329727,-0.29512 0.327921,-0.29876 0.326089,-0.3006 0.322448,-0.30422 0.320624,-0.30606 0.316979,-0.30786 0.315161,-0.31153 0.313341,-0.31334 0.309692,-0.31516 0.30423,-0.31698 0.30606,-0.32244 0.30059,-0.32063 0.29694,-0.32609 0.29694,-0.32792 0.28966,-0.32973 0.28966,-0.33338 0.28601,-0.3352 0.28237,-0.33702 0.27872,-0.34067 0.0528,-0.0437 0.0546,-0.0401 0.0583,-0.0401 0.0619,-0.0383 0.0619,-0.0364 0.0674,-0.0346 0.0692,-0.031 0.071,-0.031 0.0747,-0.0291 0.0783,-0.0255 0.0783,-0.0255 0.0838,-0.0237 0.0838,-0.0219 0.0893,-0.0182 0.0911,-0.0164 0.0929,-0.0164 0.0966,-0.0127 0.0984,-0.0128 0.10203,-0.009 0.10383,-0.009 0.10748,-0.006 0.10931,-0.004 0.11295,-0.002 0.11659,-0.002 0.23864,0.005 0.24776,0.0109 0.26233,0.02 0.27144,0.0273 0.30788,1.57945 -0.32428,0.14757 -0.32062,0.14937 -0.31334,0.15303 -0.30605,0.15303 -0.30241,0.15666 -0.29694,0.1585 -0.28966,0.16031 -0.28237,0.16214 -0.27872,0.16395 -0.27144,0.1676 -0.26598,0.1676 -0.26051,0.17124 -0.25322,0.17307 -0.24958,0.17489 -0.24228,0.17853 -0.23683,0.17853 -0.22954,0.18035 -0.22408,0.18399 -0.22043,0.18582 -0.21132,0.18582 -0.20768,0.19128 -0.20038,0.19128 -0.19493,0.19311 -0.187649,0.19492 -0.183991,0.19857 -0.176705,0.2004 -0.173069,0.20038 -0.163957,0.20404 -0.160316,0.20768 -0.153025,0.20767 -0.147555,0.21133 -0.142102,0.21132 -0.125696,0.19492 -0.120237,0.19493 -0.116592,0.19492 -0.112942,0.19494 -0.109308,0.1931 -0.105661,0.19675 -0.102021,0.1931 -0.09837,0.19492 -0.0929,0.19311 -0.08927,0.19493 -0.08562,0.1931 -0.08198,0.19493 -0.07651,0.1931 -0.07468,0.19493 -0.06923,0.19128 -0.06559,0.19492 -0.06193,0.19311 -0.05829,0.1931 -0.05466,0.1931 -0.04918,0.19311 -0.04555,0.19311 -0.0419,0.1931 -0.04008,0.1931 -0.03281,0.19311 -0.03097,0.1931 -0.02551,0.19128 -0.02368,0.19129 -0.0182,0.1931 -0.01458,0.19311 -0.01093,0.19128 -0.0055,0.1931 -0.0019,0.19129 -0.01093,0.16577 -0.0055,0.16396 -0.0055,0.16213 -0.0019,0.16214 v 0.16031 0.15849 l 0.0036,0.1585 0.0073,0.15667 0.0091,0.15667 0.01093,0.15484 0.01093,0.15303 0.0164,0.15302 0.0164,0.15121 0.02003,0.15121 0.02188,0.14937 0.02368,0.14756 0.02551,0.14757 0.02914,0.14574 0.03097,0.14392 0.03277,0.14573 0.03461,0.1421 0.03643,0.14209 0.04008,0.14027 0.0419,0.13846 0.04191,0.13845 0.04736,0.13663 0.04736,0.13664 0.05101,0.1348 0.05283,0.13299 0.05465,0.13298 0.05648,0.13299 0.06011,0.12934 0.06194,0.12935 0.06376,0.12934 0.06558,0.1257 0.06741,0.1257 0.07105,0.12569 0.07287,0.12389 0.07469,0.12206 0.07651,0.12205 0.08016,0.12023 0.08198,0.12024 0.08198,0.11841 0.08744,0.11659 0.08744,0.1166 0.08927,0.11295 0.09291,0.11476 0.09474,0.11295 0.09836,0.11113 0.09656,0.11112 0.102013,0.1093 0.103838,0.10749 0.105661,0.10748 0.109308,0.10567 0.109304,0.10566 0.112946,0.10383 0.114773,0.10202 0.116589,0.10201 0.118412,0.10021 0.120239,0.10019 0.123873,0.0966 0.12571,0.0984 0.12752,0.0947 0.13116,0.0966 0.21496,-0.0273 0.20586,-0.0273 0.19128,-0.031 0.17671,-0.031 0.15667,-0.0328 0.13664,-0.0346 0.0583,-0.0182 0.0528,-0.0164 0.0474,-0.0182 0.0383,-0.0164 0.30059,0.0929 0.15485,0.14938 0.16031,0.14574 0.16213,0.14573 0.16578,0.14392 0.1676,0.1421 0.17307,0.14027 0.17488,0.14027 0.17671,0.13664 0.14574,0.10748 0.14756,0.10566 0.14756,0.10565 0.14938,0.10385 0.14939,0.10202 0.15302,0.10019 0.15485,0.1002 0.15484,0.0966 0.15668,0.0966 0.15848,0.0947 0.16032,0.0929 0.16031,0.0911 0.16395,0.0893 0.16397,0.0893 0.16396,0.0874 0.16577,0.0838 0.1676,0.0838 0.16942,0.082 0.17124,0.0801 0.17125,0.0783 0.17306,0.0765 0.17307,0.0765 0.17489,0.0729 0.17488,0.071 0.17854,0.0711 0.17852,0.0692 0.17853,0.0674 0.18036,0.0656 0.18035,0.0638 0.18217,0.0619 0.184,0.0601 0.18399,0.0583 0.18582,0.0583 0.18582,0.0547 0.18581,0.0528 0.18764,0.0528 0.18947,0.0492 0.18946,0.0492 0.19128,0.0456 0.18946,0.0455 0.19128,0.0419 0.1931,0.0419 0.19493,0.0401 0.19311,0.0383 0.19492,0.0364 0.19493,0.0328 0.19674,0.0328 0.19675,0.031 0.19675,0.0291 0.19857,0.0273 0.19675,0.0237 0.19857,0.0237 0.20039,0.0219 0.20039,0.02 0.19857,0.0182 0.20039,0.0164 0.20221,0.0146 0.20221,0.0109 0.20222,0.0109 0.20039,0.009 0.20403,0.006 0.20404,0.005 0.20221,0.002 0.20403,0.002 0.20404,-0.002 0.20221,-0.002 0.20222,-0.005 0.20404,-0.006 0.2022,-0.009 0.20222,-0.0109 0.20221,-0.0109 0.20039,-0.0146 0.20039,-0.0164 0.2004,-0.0182 0.20038,-0.02 0.19857,-0.0219 0.2004,-0.0237 0.19674,-0.0237 0.19857,-0.0273 0.19675,-0.0291 0.19675,-0.031 0.19675,-0.0328 0.19492,-0.0328 0.19492,-0.0364 0.19312,-0.0383 0.19492,-0.0401 0.19128,-0.0419 0.19311,-0.0419 0.18946,-0.0455 0.18945,-0.0456 0.19129,-0.0492 0.18764,-0.0492 0.18764,-0.0528 0.18763,-0.0528 0.18582,-0.0547 0.18582,-0.0583 0.184,-0.0583 0.18399,-0.0601 0.18035,-0.0619 0.18217,-0.0638 0.18035,-0.0656 0.17854,-0.0674 0.17853,-0.0692 0.17853,-0.0711 0.17488,-0.071 0.17489,-0.0729 0.17307,-0.0765 0.17307,-0.0765 0.17124,-0.0783 0.17123,-0.0801 0.16761,-0.082 0.16942,-0.0838 0.16396,-0.0838 0.16578,-0.0874 0.16395,-0.0893 0.16214,-0.0893 0.16214,-0.0911 0.1603,-0.0929 0.15849,-0.0947 0.15668,-0.0966 0.15485,-0.0966 0.15484,-0.1002 0.1512,-0.10019 0.15121,-0.10202 0.14938,-0.10385 0.14756,-0.10565 0.14756,-0.10566 0.14574,-0.10748 0.1421,-0.11113 0.14028,-0.11112 0.14027,-0.11113 0.13662,-0.11295 0.13481,-0.11295 0.13299,-0.11659 0.13117,-0.11659 0.12934,-0.11659 0.12753,-0.12024 0.12569,-0.11841 0.12205,-0.12206 0.12025,-0.12023 0.11841,-0.12388 0.11658,-0.12388 0.11478,-0.1257 0.11294,-0.12388 0.10931,-0.12752 0.1093,-0.12752 0.10748,-0.12934 0.10203,-0.12934 0.10201,-0.13117 0.10019,-0.13116 0.0966,-0.13117 0.0966,-0.13298 0.0929,-0.13482 0.0911,-0.13481 0.0874,-0.1348 0.0874,-0.13663 0.0838,-0.13663 0.082,-0.13845 0.0802,-0.13845 0.0765,-0.13846 0.0765,-0.14028 0.0729,-0.14209 0.0711,-0.14027 0.0692,-0.1421 0.0656,-0.14391 0.0638,-0.1421 0.0619,-0.14391 0.0601,-0.14575 0.0565,-0.14391 0.0547,-0.14574 0.0528,-0.14574 0.0492,-0.14757 0.0492,-0.14573 0.0437,-0.14938 0.0419,-0.14756 0.0419,-0.14939 0.0383,-0.14938 0.0364,-0.14938 0.0328,-0.14939 0.031,-0.14938 0.0273,-0.15121 0.0273,-0.15119 0.0237,-0.1512 0.02,-0.15304 0.02,-0.1512 0.0164,-0.15303 0.0127,-0.15302 0.0109,-0.15302 0.0109,-0.15304 0.005,-0.15302 0.004,-0.15302 0.002,-0.15486 -0.002,-0.15484 -0.004,-0.15302 -0.005,-0.15304 -0.0109,-0.15302 -0.0109,-0.15302 -0.0127,-0.15303 -0.0164,-0.15303 -0.02,-0.1512 -0.02,-0.15303 -0.0218,-0.1512 -0.0273,-0.15121 -0.0291,-0.14938 -0.031,-0.1512 -0.031,-0.14939 -0.0364,-0.14938 -0.0383,-0.14938 -0.0383,-0.14757 -0.0437,-0.14755 -0.0437,-0.14756 -0.0474,-0.14574 -0.051,-0.14756 -0.0492,-0.14574 -0.0565,-0.14392 -0.0547,-0.14574 -0.0583,-0.1421 -0.0601,-0.14391 -0.0638,-0.1421 -0.0638,-0.14209 -0.0674,-0.14027 -0.0711,-0.14028 -0.071,-0.14027 -0.0729,-0.13664 -0.0765,-0.13844 -0.0765,-0.13846 -0.082,-0.1348 -0.082,-0.13664 -0.0838,-0.13481 -0.0856,-0.13299 -0.0893,-0.13298 -0.0911,-0.13298 -0.0929,-0.12934 -0.0947,-0.13117 -0.0947,-0.12935 -0.10019,-0.12752 -0.1002,-0.12752 -0.10202,-0.1257 -0.10384,-0.1257 -0.10748,-0.12206 -0.1093,-0.12387 -0.10931,-0.12206 -0.11294,-0.12024 -0.11478,-0.12023 -0.11659,-0.11842 -0.11841,-0.11659 -0.11841,-0.11659 -0.12206,-0.11476 -0.12387,-0.11296 -0.12571,-0.11294 -0.12752,-0.11113 -0.12934,-0.1093 -0.13117,-0.10748 -0.13298,-0.10749 -0.13299,-0.10748 -0.13664,-0.10202 0.78336,-0.13481 0.35341,-0.14392 0.31881,-0.1348 0.28783,-0.1257 0.12935,-0.0601 0.12387,-0.0583 0.11477,-0.0565 0.10567,-0.0547 0.0984,-0.0547 0.0893,-0.0528 0.0802,-0.0528 0.0729,-0.0492 0.0638,-0.051 0.0546,-0.0492 0.0474,-0.0492 0.0364,-0.0474 0.0164,-0.0255 0.0127,-0.0237 0.0128,-0.0255 0.007,-0.0237 0.007,-0.0237 0.005,-0.0255 0.002,-0.0237 v -0.0255 l -0.002,-0.0237 -0.005,-0.0255 -0.007,-0.0255 -0.007,-0.0237 -0.0128,-0.0273 -0.0109,-0.0237 -0.0346,-0.051 -0.0419,-0.0547 -0.0528,-0.0528 -0.0601,-0.0546 -0.0692,-0.0565 -0.0802,-0.0583 -0.0893,-0.0583 -0.29148,-0.18581 -0.29148,-0.18036 -0.29147,-0.17488 -0.29148,-0.17306 -0.29148,-0.16579 -0.28965,-0.16213 -0.28966,-0.15849 -0.28966,-0.15303 -0.29148,-0.14756 -0.28965,-0.14573 -0.28966,-0.13846 -0.28966,-0.13663 -0.28965,-0.12935 -0.28966,-0.12752 -0.28783,-0.12206 -0.28966,-0.11841 -0.28966,-0.11294 -0.28964,-0.10931 -0.28785,-0.10566 -0.28965,-0.10019 -0.28965,-0.0965 -0.28966,-0.0947 -0.28783,-0.0874 -0.28966,-0.0838 -0.28966,-0.0802 -0.28783,-0.0765 -0.29148,-0.0729 -0.28966,-0.0692 -0.28965,-0.0619 -0.28966,-0.0619 -0.28966,-0.0565 -0.29148,-0.051 -0.28966,-0.0492 -0.29148,-0.0437 -0.29147,-0.0419 -0.29148,-0.0364 -0.29148,-0.0328 -0.29147,-0.031 -0.29331,-0.0237 -0.29147,-0.0237 -0.2933,-0.0164 -0.2933,-0.0146 -0.29512,-0.0109 -0.2933,-0.009 -0.29512,-0.004 h -0.29512 l -0.29512,0.004 -0.29694,0.009 -0.29513,0.009 -0.29876,0.0146 -0.29695,0.0182 -0.29876,0.02 -0.29877,0.0237 -0.29877,0.0273 -0.29876,0.031 -0.30241,0.0364 -0.30058,0.0364 -0.30241,0.0419 -0.30241,0.0437 -0.30241,0.0474 -0.30423,0.051 -0.30423,0.0528 -0.30605,0.0583 -0.30605,0.0601 -0.051,-0.051 -0.0747,-0.0856 -0.0966,-0.11842 -0.12023,-0.14937 -0.30059,-0.38439 -0.37709,-0.48823 -0.44268,-0.58296 -0.49916,-0.65946 -1.13495,-1.513885 -0.0383,-0.160306 -0.031,-0.153035 -0.0273,-0.145739 -0.0219,-0.136624 -0.0146,-0.129343 -0.0109,-0.123874 -0.005,-0.114773 v -0.10566 l 0.004,-0.100196 0.009,-0.09109 0.0146,-0.08198 0.02,-0.07651 0.0237,-0.06558 0.0127,-0.02914 0.0146,-0.02914 0.0164,-0.02551 0.0182,-0.02367 0.0182,-0.02187 0.02,-0.02004 0.0219,-0.0182 0.02,-0.01457 0.0237,-0.01457 0.0237,-0.01094 0.0255,-0.0073 0.0273,-0.0091 0.0273,-0.0036 0.0273,-0.0036 h 0.031 l 0.031,0.0036 0.031,0.0036 0.0328,0.0055 0.0346,0.0091 0.0364,0.01093 0.0729,0.02734 0.0765,0.03826 0.082,0.04736 0.0856,0.05465 0.0911,0.06558 0.0929,0.07469 0.0984,0.08197 0.10202,0.09474 0.10566,0.102013 0.0747,0.04736 0.0783,0.0419 0.0838,0.04008 0.0893,0.03826 0.0911,0.03643 0.0966,0.03097 0.10019,0.03097 0.10384,0.02914 0.10931,0.02551 0.11294,0.02367 0.11842,0.02004 0.12205,0.02004 0.12389,0.0164 0.13115,0.01457 0.13481,0.01277 0.13846,0.01094 0.1421,0.0073 0.14755,0.0073 0.14938,0.0036 0.15485,0.0018 h 0.15849 l 0.16396,-0.0018 0.33884,-0.01093 0.35524,-0.0164 0.37164,-0.02367 0.3862,-0.03097 0.40443,-0.03825 0.13845,-0.02004 0.13664,-0.02004 0.13116,-0.02367 0.12388,-0.02367 0.12023,-0.02734 0.11659,-0.0273 0.11112,-0.03097 0.10568,-0.03277 0.10201,-0.03461 0.0965,-0.03644 0.0911,-0.03825 0.0874,-0.0419 0.0838,-0.04191 0.0765,-0.04372 0.0729,-0.04736 0.0692,-0.04919 0.0638,-0.05283 0.0583,-0.05283 0.0546,-0.05647 0.0492,-0.0583 0.0455,-0.06012 0.0383,-0.06376 0.0364,-0.06558 0.031,-0.0674 0.0273,-0.07106 0.0219,-0.07286 0.0164,-0.07469 0.0128,-0.07833 0.007,-0.08198 0.004,-0.08198 v -0.08744 l -0.007,-0.08744 0.0856,-0.519197 0.0765,-0.491864 0.0656,-0.468186 0.0583,-0.442679 0.051,-0.417185 0.0401,-0.391671 0.0346,-0.366169 0.0255,-0.342491 0.0182,-0.316978 0.0127,-0.289659 0.005,-0.26597 v -0.24228 l -0.004,-0.216785 -0.0109,-0.191283 -0.0164,-0.165774 -0.009,-0.07469 -0.0109,-0.06741 -0.002,-0.02004 -0.005,-0.02004 -0.007,-0.02004 -0.009,-0.02004 -0.0146,-0.0182 -0.0164,-0.01824 -0.02,-0.02004 -0.02,-0.0182 -0.0528,-0.03643 -0.0619,-0.03461 -0.0729,-0.03461 -0.082,-0.03281 -0.0893,-0.03097 -0.1002,-0.03097 -0.10748,-0.02914 -0.11841,-0.02914 -0.12389,-0.0273 -0.13116,-0.02367 -0.14027,-0.02551 -0.14574,-0.02187 -0.15121,-0.02187 -0.15848,-0.02004 -0.16396,-0.0182 -0.1676,-0.0182 -0.17307,-0.01457 -0.1767,-0.01277 -0.18401,-0.01273 -0.18399,-0.0091 -0.18946,-0.0091 -0.19128,-0.0055 -0.19493,-0.0055 -0.19674,-0.0018 z m -14.901808,4.878617 h 0.138456 l 0.138443,0.0018 0.138454,0.0055 0.136636,0.0073 0.134805,0.0073 0.136629,0.01093 0.134807,0.01274 0.132991,0.01277 0.134805,0.0164 0.132987,0.0182 0.131162,0.02004 0.132988,0.02187 0.129341,0.02551 0.13117,0.02551 0.131159,0.02734 0.129355,0.02914 0.129342,0.03281 0.129339,0.03277 0.127526,0.03644 0.127521,0.03825 0.127522,0.04008 0.127513,0.04008 0.125703,0.04372 0.07834,0.0255 0.06558,0.02367 0.0547,0.0255 0.0437,0.02551 0.031,0.02367 0.0127,0.01093 0.0109,0.01273 0.007,0.01093 0.004,0.01094 0.002,0.01277 v 0.01093 l -0.004,0.01094 -0.005,0.01093 -0.007,0.01093 -0.0109,0.01273 -0.0273,0.02187 -0.0364,0.02367 -0.0437,0.02187 -0.0546,0.02187 -0.06194,0.02184 -0.07105,0.02367 -0.07834,0.02367 -0.08561,0.02187 -0.193103,0.04554 -0.22043,0.04736 -0.245933,0.04555 -0.267798,0.04918 -0.289658,0.04919 -0.633965,0.105657 -0.694084,0.114772 -0.735978,0.125695 -0.378923,0.06559 -0.384387,0.07105 -0.388035,0.07468 -0.388022,0.07834 -0.384387,0.08016 -0.382572,0.08744 -0.377094,0.09108 -0.367988,0.09474 -0.180351,0.04918 -0.178535,0.05101 -0.17489,0.05283 -0.173064,0.05283 -0.167595,0.05465 -0.165785,0.05648 -0.160306,0.0583 -0.15667,0.05829 -0.98374,0.160309 -0.912696,0.156672 -0.429924,0.07469 -0.413536,0.07469 -0.393499,0.07469 -0.377102,0.07105 -0.149376,0.02367 -0.136636,0.02004 -0.122058,0.01457 -0.109297,0.01093 -0.09655,0.0055 h -0.0838 l -0.06923,-0.0036 -0.05648,-0.0091 -0.02368,-0.0036 -0.02003,-0.0073 -0.0182,-0.0091 -0.01278,-0.0091 -0.0091,-0.01093 -0.0073,-0.01093 -0.0036,-0.01457 v -0.01273 l 0.0019,-0.01457 0.0073,-0.0164 0.0091,-0.02004 0.01273,-0.0182 0.03644,-0.04008 0.04918,-0.04554 0.06194,-0.0492 0.07468,-0.05648 0.08927,-0.05829 0.102013,-0.06558 0.114771,-0.0674 0.129344,-0.07288 0.140272,-0.07833 0.15485,-0.08197 0.167595,-0.08927 0.182181,-0.09108 0.400773,-0.198568 0.455443,-0.216796 0.506447,-0.233183 0.367988,-0.158489 0.362526,-0.149377 0.357056,-0.142098 0.349776,-0.134811 0.346125,-0.125695 0.34067,-0.118417 0.335195,-0.111125 0.329737,-0.102012 0.326094,-0.09656 0.320627,-0.08744 0.316976,-0.07833 0.311526,-0.07105 0.307872,-0.06376 0.304228,-0.05648 0.300586,-0.04736 0.295121,-0.04008 0.291481,-0.03281 0.145738,-0.01273 0.14392,-0.01273 0.143912,-0.0073 0.140272,-0.0073 0.142102,-0.0055 0.140272,-0.0036 z m -22.336329,6.802358 -0.07469,0.0893 -0.07833,0.0893 -0.0838,0.0874 -0.08927,0.0893 -0.09473,0.0874 -0.09837,0.0856 -0.103841,0.0874 -0.107477,0.0856 -0.112945,0.0856 -0.118417,0.0856 -0.122058,0.0838 -0.127526,0.0856 -0.132977,0.0838 -0.136636,0.0838 -0.142092,0.0838 -0.14574,0.082 -0.151205,0.082 -0.15667,0.082 -0.160308,0.0838 -0.165786,0.0802 -0.171238,0.0802 -0.17489,0.0802 -0.18035,0.0802 -0.183997,0.0802 -0.18946,0.0783 -0.194932,0.0802 -0.198567,0.0783 -0.204033,0.0765 -0.2095,0.0783 -0.213138,0.0765 -0.218617,0.0765 -0.22225,0.0765 -0.400783,0.13481 -0.388025,0.12387 -0.373456,0.11478 -0.360704,0.10384 -0.346136,0.0947 -0.333378,0.082 -0.320627,0.0729 -0.154839,0.0328 -0.153033,0.0291 -0.149376,0.0291 -0.14574,0.0255 -0.142102,0.02 -0.140272,0.02 -0.13481,0.0182 -0.132988,0.0146 -0.131159,0.0109 -0.125704,0.009 -0.123875,0.007 -0.120229,0.005 h -0.118423 -0.11476 l -0.111135,-0.004 -0.10748,-0.006 -0.105658,-0.009 -0.102024,-0.0109 -0.09837,-0.0146 -0.09656,-0.0164 -0.09291,-0.0182 -0.09109,-0.02 -0.08744,-0.0255 -0.0838,-0.0255 -0.08198,-0.0291 -0.07834,-0.0328 -0.07468,-0.0328 -0.07288,-0.0383 -0.06923,-0.0383 -0.0674,-0.0419 -0.06376,-0.0456 -0.06194,-0.0455 -0.0583,-0.0492 -0.05465,-0.0528 -0.05283,-0.0547 -0.05101,-0.0565 -0.04554,-0.0601 -0.04555,-0.0619 -0.0419,-0.0656 -0.03825,-0.0674 -0.03644,-0.071 -0.03277,-0.071 -0.03098,-0.0747 -0.0273,-0.0765 -0.02551,-0.082 -0.02368,-0.082 -0.02003,-0.0856 -0.0164,-0.0874 -0.01458,-0.0911 -0.01278,-0.0911 0.112956,0.0437 0.11294,0.0419 0.116594,0.0419 0.118409,0.0364 0.120237,0.0346 0.122058,0.0346 0.123875,0.0291 0.127527,0.0291 0.127521,0.0255 0.131159,0.0237 0.13299,0.0219 0.134808,0.0182 0.136633,0.0164 0.138454,0.0146 0.142092,0.0127 0.142092,0.007 0.14574,0.009 0.147566,0.004 0.149379,0.004 h 0.151204 l 0.153024,-0.002 0.156671,-0.006 0.15667,-0.007 0.160319,-0.009 0.162134,-0.0109 0.163957,-0.0128 0.165772,-0.0164 0.167603,-0.0182 0.169421,-0.0219 0.173069,-0.0237 0.173059,-0.0255 0.176712,-0.0273 0.178528,-0.031 0.18035,-0.031 0.182171,-0.0364 0.18582,-0.0364 0.375285,-0.0802 0.382558,-0.0911 0.393499,-0.10202 0.398958,-0.1093 0.409897,-0.11842 0.415354,-0.12752 0.426286,-0.13844 0.433567,-0.14757 0.440868,-0.15485 0.451786,-0.1676 0.457258,-0.17306 0.466366,-0.18582 0.475472,-0.19311 z m 39.890587,6.52182 h 0.19129 l 0.18945,0.007 0.26416,0.002 0.26233,0.007 0.26234,0.0127 0.2605,0.0164 0.26051,0.0219 0.25868,0.0273 0.25686,0.031 0.25688,0.0364 0.25322,0.0401 0.25321,0.0474 0.25141,0.0492 0.24775,0.0547 0.24776,0.0601 0.24594,0.0638 0.24228,0.0674 0.24048,0.0729 0.23865,0.0783 0.235,0.0802 0.23318,0.0856 0.22954,0.0911 0.22771,0.0947 0.22408,0.0984 0.22225,0.10384 0.21679,0.10566 0.21496,0.11113 0.21132,0.11659 0.20768,0.11841 0.20586,0.12388 0.20039,0.12752 0.19675,0.13117 0.19128,0.13481 0.18947,0.14027 0.18398,0.14209 0.18036,0.14574 0.17307,0.14939 0.16759,0.1512 0.16396,0.15485 0.15666,0.15667 0.15304,0.16031 0.14755,0.16214 0.1421,0.16395 0.13664,0.16942 0.12933,0.1676 0.12571,0.17307 0.11841,0.17306 0.11294,0.17671 0.10931,0.17853 0.10201,0.18036 0.0947,0.18035 0.0911,0.18399 0.0856,0.18582 0.0783,0.18763 0.071,0.18764 0.0656,0.18947 0.0619,0.19128 0.0528,0.19129 0.0492,0.19492 0.0401,0.19492 0.0364,0.19493 0.0291,0.19675 0.0219,0.19857 0.0164,0.19674 0.009,0.19858 0.005,0.20039 -0.005,0.19857 -0.009,0.19857 -0.0164,0.19856 -0.0219,0.19675 -0.0291,0.19675 -0.0364,0.19493 -0.0401,0.19492 -0.0492,0.19493 -0.0528,0.19128 -0.0619,0.19129 -0.0656,0.18945 -0.071,0.18946 -0.0783,0.18582 -0.0856,0.18582 -0.0911,0.184 -0.0947,0.18035 -0.10201,0.18035 -0.10931,0.17852 -0.11294,0.17672 -0.11841,0.17489 -0.12571,0.17124 -0.12933,0.16942 -0.13664,0.1676 -0.1421,0.16395 -0.14755,0.16214 -0.15304,0.16031 -0.15666,0.15667 -0.16396,0.15485 -0.16759,0.15121 -0.17307,0.14937 -0.18036,0.14574 -0.18398,0.14392 -0.18947,0.13846 -0.19128,0.13662 -0.19675,0.12935 -0.20039,0.12935 -0.20586,0.12204 -0.20768,0.12024 -0.21132,0.11477 -0.21496,0.11113 -0.21679,0.10748 -0.22225,0.10202 -0.22408,0.0984 -0.22771,0.0947 -0.22954,0.0911 -0.23318,0.0856 -0.235,0.0802 -0.23865,0.0783 -0.24048,0.0729 -0.24228,0.0692 -0.24594,0.0619 -0.24776,0.0601 -0.24775,0.0547 -0.25141,0.0492 -0.25321,0.0474 -0.25322,0.0401 -0.25688,0.0364 -0.25686,0.031 -0.25868,0.0273 -0.26051,0.0219 -0.2605,0.0164 -0.26234,0.0128 -0.26233,0.007 -0.26416,0.004 -0.26414,-0.004 -0.26234,-0.007 -0.26233,-0.0128 -0.26051,-0.0164 -0.2605,-0.0219 -0.25869,-0.0273 -0.25686,-0.031 -0.25687,-0.0364 -0.25322,-0.0401 -0.25322,-0.0474 -0.24958,-0.0492 -0.2514,-0.0547 -0.24593,-0.0601 -0.24412,-0.0619 -0.24411,-0.0692 -0.24047,-0.0729 -0.23682,-0.0783 -0.23683,-0.0802 -0.23136,-0.0856 -0.23136,-0.0911 -0.22772,-0.0947 -0.22407,-0.0984 -0.22044,-0.10202 -0.2186,-0.10748 -0.21497,-0.11113 -0.21131,-0.11477 -0.20769,-0.12024 -0.20403,-0.12204 -0.20039,-0.12935 -0.19675,-0.12935 -0.1931,-0.13662 -0.18947,-0.13846 -0.18399,-0.14392 -0.17853,-0.14574 -0.17489,-0.14937 -0.1676,-0.15121 -0.16396,-0.15485 -0.15848,-0.15667 -0.15121,-0.16031 -0.14756,-0.16214 -0.14027,-0.16395 -0.13663,-0.1676 -0.13117,-0.16942 -0.12388,-0.17124 -0.12023,-0.17489 -0.11477,-0.17672 -0.10566,-0.17852 -0.10202,-0.18035 -0.0984,-0.18035 -0.0893,-0.184 -0.0838,-0.18582 -0.0783,-0.18582 -0.0729,-0.18946 -0.0674,-0.18945 -0.0583,-0.19129 -0.0546,-0.19128 -0.0474,-0.19493 -0.0437,-0.19492 -0.0346,-0.19493 -0.0273,-0.19675 -0.0237,-0.19675 -0.0164,-0.19856 -0.0109,-0.19857 -0.002,-0.19857 0.002,-0.20039 0.0109,-0.19858 0.0164,-0.19674 0.0237,-0.19857 0.0273,-0.19675 0.0346,-0.19493 0.0437,-0.19492 0.0474,-0.19492 0.0546,-0.19129 0.0583,-0.19128 0.0674,-0.18947 0.0729,-0.18764 0.0783,-0.18763 0.0838,-0.18582 0.0893,-0.18399 0.0984,-0.18035 0.10202,-0.18036 0.10566,-0.17853 0.11477,-0.17671 0.12023,-0.17306 0.12388,-0.17307 0.13117,-0.1676 0.13663,-0.16942 0.14027,-0.16395 0.14756,-0.16214 0.15121,-0.16031 0.15848,-0.15667 0.16396,-0.15485 0.1676,-0.1512 0.17489,-0.14939 0.17853,-0.14574 0.18399,-0.14209 0.15667,-0.11659 0.15667,-0.11477 0.15668,-0.10931 0.15667,-0.10748 0.15667,-0.10202 0.15484,-0.0984 0.15302,-0.0947 0.15121,-0.0893 0.14938,-0.0856 0.14392,-0.082 0.1421,-0.0765 0.13845,-0.071 0.13481,-0.0656 0.12934,-0.0601 0.12387,-0.0546 0.12024,-0.0474 -0.031,0.051 -0.0255,0.0474 -0.0218,0.0492 -0.0182,0.0456 -0.0164,0.0455 -0.0128,0.0419 -0.009,0.0437 -0.007,0.0401 -0.002,0.0383 v 0.0401 l 0.004,0.0346 0.007,0.0346 0.0109,0.0364 0.0127,0.031 0.0164,0.031 0.02,0.0291 0.0237,0.0291 0.0255,0.0255 0.031,0.0255 0.031,0.0237 0.0364,0.0237 0.0401,0.02 0.0419,0.02 0.0455,0.0182 0.051,0.0164 0.051,0.0164 0.0565,0.0128 0.0583,0.0127 0.0619,0.0109 0.0674,0.0109 0.14027,0.0146 0.235,0.42445 0.23137,0.41354 0.22771,0.40807 0.22225,0.4026 0.21679,0.40261 0.10567,0.20221 0.10383,0.20586 0.10384,0.20586 0.0984,0.20767 0.0984,0.21133 0.0966,0.21497 -0.22043,0.10201 -0.2095,0.10566 -0.2004,0.10749 -0.19128,0.10929 -0.18035,0.11114 -0.0856,0.0565 -0.0838,0.0583 -0.082,0.0583 -0.0783,0.0601 -0.0765,0.0583 -0.0729,0.0601 -0.0729,0.0601 -0.0674,0.0601 -0.0674,0.0638 -0.0656,0.0619 -0.0619,0.0619 -0.0601,0.0638 -0.0565,0.0619 -0.0546,0.0656 -0.0528,0.0638 -0.051,0.0674 -0.0474,0.0638 -0.0455,0.0674 -0.0437,0.0656 -0.0401,0.0674 -0.0401,0.0692 -0.0364,0.0656 -0.0346,0.0692 -0.0328,0.0692 -0.0291,0.0692 -0.0273,0.0692 -0.0273,0.071 -0.0237,0.0692 -0.02,0.071 -0.0182,0.0729 -0.0182,0.071 -0.0146,0.071 -0.0127,0.0729 -0.0109,0.0729 -0.009,0.0729 -0.005,0.0747 -0.004,0.0729 -0.004,0.0747 v 0.0729 l 0.002,0.0747 0.004,0.0765 0.005,0.0747 0.007,0.0747 0.0109,0.0765 0.0128,0.0765 0.0127,0.0747 0.0346,0.15484 0.0401,0.15485 0.0492,0.15302 0.0565,0.15667 0.0729,0.11113 0.0783,0.1093 0.0856,0.10748 0.0893,0.10566 0.0965,0.10203 0.1002,0.10201 0.10384,0.1002 0.11112,0.0965 0.11478,0.0966 0.1184,0.0929 0.12571,0.0893 0.1257,0.0893 0.13298,0.0856 0.13481,0.082 0.13845,0.0802 0.14392,0.0783 0.14756,0.0747 0.14756,0.0692 0.15303,0.0692 0.15667,0.0656 0.15666,0.0619 0.16214,0.0583 0.16214,0.0546 0.16577,0.0528 0.1676,0.0492 0.16942,0.0437 0.17125,0.0419 0.17306,0.0364 0.17489,0.0346 0.17489,0.0291 0.17671,0.0255 0.17853,0.02 0.17853,0.0182 0.18035,0.0128 0.18036,0.009 0.18035,0.004 h 0.18035 l 0.18035,-0.005 0.18035,-0.0109 0.18035,-0.0128 0.18035,-0.02 0.17854,-0.0237 0.17853,-0.0291 0.17852,-0.0346 0.17672,-0.0401 0.17489,-0.0437 0.17305,-0.051 0.17307,-0.0546 0.17124,-0.0619 0.16942,-0.0656 0.16579,-0.0729 0.16577,-0.0783 0.16214,-0.082 0.16032,-0.0893 0.15665,-0.0966 0.15486,-0.10019 0.1512,-0.10931 0.14939,-0.11294 0.14574,-0.12024 0.14027,-0.12752 0.13845,-0.13299 0.13663,-0.14027 0.12934,-0.14574 0.0638,-0.0747 0.062,-0.0783 0.0692,-0.10385 0.0656,-0.10383 0.0601,-0.10567 0.0546,-0.10201 0.051,-0.10384 0.0474,-0.10384 0.0437,-0.10201 0.0383,-0.10202 0.0328,-0.10202 0.0291,-0.1002 0.0237,-0.10019 0.0219,-0.10201 0.0146,-0.0984 0.0128,-0.1002 0.007,-0.0984 0.002,-0.0984 -0.002,-0.0966 -0.007,-0.0966 -0.0109,-0.0966 -0.0164,-0.0947 -0.02,-0.0965 -0.0237,-0.0929 -0.031,-0.0947 -0.0328,-0.0911 -0.0401,-0.0929 -0.0419,-0.0911 -0.0492,-0.0911 -0.0528,-0.0893 -0.0583,-0.0893 -0.0601,-0.0874 -0.0674,-0.0874 -0.071,-0.0875 -0.0765,-0.0838 -0.082,-0.0856 -0.0838,-0.0838 -0.0911,-0.082 -0.0947,-0.082 -0.1002,-0.082 -0.10384,-0.0783 -0.11113,-0.0802 -0.11294,-0.0765 -0.11841,-0.0783 -0.12389,-0.0747 -0.12933,-0.0747 -0.13299,-0.0729 -0.13845,-0.0729 -0.14392,-0.071 -0.14756,-0.0692 -0.15303,-0.0692 -0.15849,-0.0674 -0.16213,-0.0674 -0.1676,-0.0638 -0.17125,-0.0656 -0.17852,-0.0619 -0.18218,-0.0601 -0.18946,-0.0619 -0.19128,-0.0583 -0.19675,-0.0565 -0.20222,-0.0565 -0.20767,-0.0547 -0.21315,-0.0528 -0.2186,-0.051 -0.22225,-0.051 -0.22772,-0.0492 -0.082,-0.29511 -0.10202,-0.36071 -0.1257,-0.42265 -0.15484,-0.49733 -0.18401,-0.57749 -0.2186,-0.65765 -0.25505,-0.74873 -0.29329,-0.84528 0.26415,-0.0437 0.24411,-0.031 0.22772,-0.0237 0.21315,-0.0164 0.20403,-0.009 z"
         style="fill:#aa0000;fill-opacity:1;fill-rule:evenodd;stroke:none;stroke-width:0.33578274;stroke-miterlimit:4;stroke-dasharray:none;stroke-opacity:1" />
      <path
         inkscape:connector-curvature="0"
         id="path58"
         d="m -89.013669,117.07104 v 0 l -0.462637,0.0249 -0.441492,0.0186 -0.420225,0.0149 -0.39896,0.0112 -0.377817,0.005 -0.356552,0.001 -0.335412,-0.004 -0.314267,-0.009 -0.292878,-0.0137 -0.271859,-0.0174 -0.250471,-0.0224 -0.229325,-0.0273 -0.106706,-0.0162 -0.101479,-0.0162 -0.09601,-0.0174 -0.09091,-0.0186 -0.08544,-0.0199 -0.08021,-0.0224 -0.07487,-0.0224 -0.06964,-0.0224 v 0 l -0.15558,-0.0547 -0.149114,-0.0585 -0.142645,-0.0622 -0.136051,-0.0659 -0.129715,-0.0709 -0.123243,-0.0746 -0.116779,-0.0784 -0.110434,-0.0821 -0.103844,-0.0858 -0.09738,-0.0908 -0.09091,-0.0945 -0.04303,-0.0485 -0.04141,-0.0498 -0.0398,-0.051 -0.03818,-0.051 -0.03656,-0.0522 -0.03506,-0.0547 -0.03334,-0.0547 -0.03172,-0.0547 -0.03009,-0.0572 -0.02847,-0.0572 -0.02688,-0.0584 -0.02527,-0.0597 -0.04577,-0.12312 -0.03918,-0.12561 -0.03284,-0.13059 -0.02625,-0.13431 -0.0199,-0.13804 -0.01331,-0.14302 -0.0074,-0.14551 -2.65e-4,-0.15048 0.0062,-0.15421 0.01257,-0.15919 0.01892,-0.16167 0.02537,-0.16664 0.03196,-0.17038 0.0383,-0.17411 0.04477,-0.17908 v 0 l 0.04838,-0.0871 0.05273,-0.0833 0.05721,-0.0808 0.06156,-0.0771 0.06616,-0.0746 0.07051,-0.0721 0.07512,-0.0684 0.07972,-0.0647 0.0842,-0.0622 0.08867,-0.0597 0.09339,-0.056 0.098,-0.0535 0.102597,-0.051 0.107326,-0.0473 0.112053,-0.0448 0.116652,-0.0423 0.121381,-0.0398 0.126227,-0.0361 0.130958,-0.0336 0.135806,-0.0311 0.140657,-0.0286 0.145378,-0.0261 0.150358,-0.0224 0.155204,-0.0211 0.160057,-0.0174 0.165156,-0.0162 0.170008,-0.0125 0.174977,-0.0112 0.179956,-0.007 0.185052,-0.006 0.190027,-0.002 0.19513,-0.001 v 0 l 0.335534,0.0149 0.335285,0.0174 0.334791,0.0186 0.334539,0.0199 0.668208,0.0473 0.66721,0.0535 0.666343,0.0609 0.665596,0.0672 0.664975,0.0746 0.664601,0.0821 0.664475,0.0871 0.664356,0.0933 0.664474,0.10073 0.664602,0.10571 0.665099,0.11193 0.665721,0.11814 0.666339,0.12312 0.66734,0.1281 v 0 l 0.571577,0.11814 0.544587,0.11069 1.003371,0.2052 0.456041,0.0958 0.423958,0.0945 0.390626,0.0933 0.182319,0.046 0.173611,0.046 v 0 l 0.06516,0.0211 0.07138,0.0249 0.07649,0.0286 0.08046,0.0336 0.08382,0.0373 0.08594,0.041 0.08705,0.0448 0.08743,0.0497 0.08656,0.0522 0.08482,0.0547 0.08208,0.0597 0.07835,0.0622 0.07362,0.0647 0.06802,0.0684 0.06132,0.0709 0.02787,0.0373 0.02585,0.0373 0.02363,0.0373 0.02151,0.0386 0.01892,0.0398 0.01654,0.0398 0.01378,0.0398 0.01119,0.041 0.0087,0.041 0.005,0.0423 0.0024,0.0423 -0.0013,0.0435 -0.005,0.0435 -0.0087,0.0448 -0.01241,0.0448 -0.01556,0.0448 -0.01929,0.0448 -0.02339,0.046 -0.02762,0.0473 -0.03171,0.046 -0.03607,0.0473 -0.04067,0.0473 -0.04514,0.0485 -0.04987,0.0485 -0.05484,0.0485 -0.05982,0.0485 -0.06479,0.0498 -0.07014,0.0485 -0.07536,0.0497 -0.08096,0.0498 -0.08656,0.051 -0.09215,0.0497 -0.098,0.051 -0.104095,0.051 v 0 l -0.549809,0.0609 -0.579539,0.0584 -0.609383,0.0547 -0.63923,0.051 -0.668954,0.0485 -0.698802,0.0448 -0.728525,0.0423 -0.75837,0.0386 v 0 l -3.024531,0.22634 -0.367745,0.0261 -0.03818,0.002 -2.51e-4,-0.001 0.0062,-10e-4 0.0087,-0.002 -0.02787,-10e-4 -0.104717,0.005 -0.221615,0.0125 -0.954744,0.0609 -1.904259,0.12934"
         style="fill:#aa0000;fill-opacity:1;fill-rule:evenodd;stroke:none;stroke-width:0.33578271;stroke-miterlimit:4;stroke-dasharray:none;stroke-opacity:1" />
    </g>
    <rect
       y="97.029343"
       x="59.844879"
       height="42.199623"
       width="73.8134"
       id="rect4580"
       style="opacity:1;fill:#ffffff;fill-opacity:1;stroke:#000000;stroke-width:0.55298418;stroke-linecap:round;stroke-miterlimit:4;stroke-dasharray:none;stroke-opacity:1" />
    <g
       id="g4560"
       transform="matrix(1.8786752,0,0,1.8786752,251.55218,-351.45164)">
      <path
         id="path6"
         d="m -83.859899,248.56078 0.138377,-0.87894 -0.308239,-0.007 h -1.471877 l 1.022879,-6.48573 a 0.08360833,0.08360833 0 0 1 0.08308,-0.0709 h 2.481791 c 0.823913,0 1.392503,0.17145 1.689365,0.50986 0.139171,0.15875 0.227806,0.32464 0.270669,0.5072 0.04498,0.19156 0.04577,0.42042 0.0019,0.69956 l -0.0032,0.0204 v 0.17886 l 0.139171,0.0789 a 0.9763125,0.9763125 0 0 1 0.281781,0.21484 c 0.119062,0.13573 0.196056,0.30824 0.2286,0.51276 0.0336,0.21035 0.02249,0.46064 -0.03254,0.74401 -0.0635,0.32597 -0.166159,0.60986 -0.3048,0.84217 a 1.7322271,1.7322271 0 0 1 -0.482857,0.52917 c -0.18415,0.1307 -0.402961,0.22992 -0.650346,0.29342 -0.239713,0.0624 -0.513027,0.0939 -0.8128,0.0939 h -0.193146 c -0.138112,0 -0.272256,0.0497 -0.37756,0.1389 a 0.58472917,0.58472917 0 0 0 -0.19685,0.35137 l -0.01455,0.0791 -0.244475,1.54913 -0.01111,0.0569 c -0.0029,0.018 -0.0079,0.027 -0.01535,0.0331 a 0.04101042,0.04101042 0 0 1 -0.0254,0.009 z"
         style="fill:#253b80;stroke-width:0.26458332"
         inkscape:connector-curvature="0" />
      <path
         id="path8"
         d="m -79.684245,242.87568 c -0.0074,0.0474 -0.01587,0.0958 -0.0254,0.14552 -0.327289,1.68037 -1.447006,2.26087 -2.877079,2.26087 h -0.728133 c -0.17489,0 -0.322263,0.127 -0.349515,0.2995 l -0.372798,2.36432 -0.105568,0.67019 a 0.18626667,0.18626667 0 0 0 0.183885,0.21537 h 1.291431 c 0.152929,0 0.28284,-0.11112 0.306917,-0.26194 l 0.0127,-0.0656 0.243152,-1.54305 0.01561,-0.0847 c 0.02381,-0.15134 0.153988,-0.26247 0.306917,-0.26247 h 0.193146 c 1.251215,0 2.230702,-0.508 2.516981,-1.97802 0.119592,-0.6141 0.05768,-1.12686 -0.258762,-1.48749 a 1.2348104,1.2348104 0 0 0 -0.353484,-0.27252 z"
         style="fill:#179bd7;stroke-width:0.26458332"
         inkscape:connector-curvature="0" />
      <path
         id="path10"
         d="m -80.026615,242.73916 a 2.5815396,2.5815396 0 0 0 -0.318294,-0.0707 4.0438917,4.0438917 0 0 0 -0.641879,-0.0468 h -1.945217 a 0.31009167,0.31009167 0 0 0 -0.306652,0.26247 l -0.413809,2.62096 -0.01191,0.0765 a 0.35348333,0.35348333 0 0 1 0.349515,-0.2995 h 0.728133 c 1.430073,0 2.54979,-0.58076 2.877079,-2.26087 0.0098,-0.0497 0.01799,-0.0982 0.0254,-0.14552 a 1.7446625,1.7446625 0 0 0 -0.269081,-0.11351 2.3931562,2.3931562 0 0 0 -0.07329,-0.023 z"
         style="fill:#222d65;stroke-width:0.26458332"
         inkscape:connector-curvature="0" />
      <path
         id="path12"
         d="m -83.238657,242.88415 a 0.30929792,0.30929792 0 0 1 0.306652,-0.2622 h 1.945217 c 0.230452,0 0.445558,0.0151 0.641879,0.0468 a 2.5815396,2.5815396 0 0 1 0.391848,0.0934 c 0.09657,0.032 0.186266,0.0699 0.269081,0.11351 0.09737,-0.62098 -7.94e-4,-1.04378 -0.33655,-1.42663 -0.370152,-0.42148 -1.038225,-0.60193 -1.893094,-0.60193 h -2.481792 c -0.174625,0 -0.323585,0.127 -0.350572,0.29977 l -1.033728,6.55241 a 0.21325417,0.21325417 0 0 0 0.210344,0.24659 h 1.532202 l 0.384704,-2.44078 z"
         style="fill:#253b80;stroke-width:0.26458332"
         inkscape:connector-curvature="0" />
    </g>
    <rect
       style="opacity:1;fill:#ffffff;fill-opacity:1;stroke:#000000;stroke-width:0.55298418;stroke-linecap:round;stroke-miterlimit:4;stroke-dasharray:none;stroke-opacity:1"
       id="rect4582"
       width="73.8134"
       height="42.199623"
       x="59.844879"
       y="151.01779" />
    <g
       id="g4566"
       transform="translate(173.59242,-109.16349)">
      <g
         id="g4576"
         transform="matrix(1.1022506,0,0,1.1022506,9.7709671,-28.57729)">
        <path
           inkscape:connector-curvature="0"
           id="e"
           d="m -91.167239,268.84328 c -2.395535,0 -4.391735,1.0163 -4.391735,4.08246 0,2.42907 1.342301,3.95875 4.453593,3.95875 3.662138,0 3.896894,-2.41237 3.896894,-2.41237 h -1.774477 c 0,0 -0.380464,1.29897 -2.230663,1.29897 -1.506937,0 -2.590785,-1.01798 -2.590785,-2.44483 h 6.781492 v -0.89536 c 0,-1.4116 -0.89611,-3.58762 -4.144319,-3.58762 z m -0.06185,1.14432 c 1.434448,0 2.412362,0.87878 2.412362,2.19587 h -4.948436 c 0,-1.39826 1.276427,-2.19587 2.536074,-2.19587 z"
           style="fill:#e53238;fill-opacity:1;stroke:none;stroke-width:0.11328708" />
        <path
           inkscape:connector-curvature="0"
           id="b"
           d="m -87.024179,265.87421 v 9.47047 c 0,0.53757 -0.03837,1.29239 -0.03837,1.29239 h 1.692479 c 0,0 0.06075,-0.54212 0.06075,-1.03757 0,0 0.836194,1.30818 3.109867,1.30818 2.394269,0 4.020605,-1.66226 4.020605,-4.0438 0,-2.21551 -1.493842,-3.99741 -4.01674,-3.99741 -2.362516,0 -3.096639,1.27577 -3.096639,1.27577 v -4.26803 z m 4.391737,4.16365 c 1.625896,0 2.659787,1.2067 2.659787,2.82602 0,1.73644 -1.19411,2.87242 -2.648188,2.87242 -1.735315,0 -2.671383,-1.35493 -2.671383,-2.85695 0,-1.39959 0.839961,-2.84149 2.659784,-2.84149 z"
           style="fill:#0064d2;fill-opacity:1;stroke:none;stroke-width:0.11328708" />
        <path
           inkscape:connector-curvature="0"
           id="a"
           d="m -73.972675,268.84328 c -3.603906,0 -3.835039,1.97332 -3.835039,2.28865 h 1.793808 c 0,0 0.09407,-1.15206 1.91752,-1.15206 1.184909,0 2.103086,0.54235 2.103086,1.58505 v 0.37113 h -2.103086 c -2.791997,0 -4.268028,0.81677 -4.268028,2.47422 0,1.63117 1.363806,2.51868 3.20682,2.51868 2.511743,0 3.320865,-1.38788 3.320865,-1.38788 0,0.55202 0.04256,1.096 0.04256,1.096 h 1.594678 c 0,0 -0.06186,-0.67428 -0.06186,-1.10567 v -3.72873 c 0,-2.44487 -1.972046,-2.95939 -3.711328,-2.95939 z m 1.979375,4.20617 v 0.49484 c 0,0.64542 -0.398264,2.25 -2.742903,2.25 -1.283917,0 -1.834401,-0.64077 -1.834401,-1.38402 0,-1.35211 1.853804,-1.36082 4.577304,-1.36082 z"
           style="fill:#f5af02;fill-opacity:1;stroke:none;stroke-width:0.11328708" />
        <path
           inkscape:connector-curvature="0"
           id="y"
           d="m -71.227286,269.15287 h 2.018035 l 2.89616,5.80226 2.889535,-5.80226 h 1.82805 l -5.263237,10.32986 h -1.91752 l 1.518773,-2.87959 z"
           style="fill:#86b817;fill-opacity:1;stroke:none;stroke-width:0.11328708" />
      </g>
    </g>
    <text
       xml:space="preserve"
       style="font-style:normal;font-variant:normal;font-weight:normal;font-stretch:normal;font-size:10.58333302px;line-height:1;font-family:'Open Sans';-inkscape-font-specification:'Open Sans';letter-spacing:0px;word-spacing:0px;fill:#000000;fill-opacity:1;stroke:none;stroke-width:0.26458332"
       x="-87.664398"
       y="190.35945"
       id="text4570"><tspan
         sodipodi:role="line"
         id="tspan4568"
         x="-87.664398"
         y="198.41388"
         style="stroke-width:0.26458332" /></text>
  </g>
</svg>
